<svg width="20" height="20" viewBox="0 0 20 20" fill="none" xmlns="http://www.w3.org/2000/svg">
  <path d="M10 0C4.48 0 0 4.48 0 10C0 15.52 4.48 20 10 20C15.52 20 20 15.52 20 10C20 4.48 15.52 0 10 0ZM8.86 16.62C5.21 15.97 2.5 13.13 2.06 9.44H5.7C5.82 11.61 6.35 14.31 8.86 16.62ZM7.7 9.44H12.3C12.2 11.05 11.82 12.48 11.24 13.65C10.85 14.44 10.4 15.08 9.92 15.55C9.05 14.58 8.33 13.1 7.87 11.44C7.76 11.01 7.7 10.41 7.7 9.44ZM5.7 7.44H2.06C2.5 3.75 5.21 0.91 8.86 0.26C6.35 2.57 5.82 5.27 5.7 7.44ZM7.7 7.44C7.7 6.47 7.76 5.87 7.87 5.44C8.33 3.78 9.05 2.3 9.92 1.33C10.4 1.8 10.85 2.44 11.24 3.23C11.82 4.4 12.2 5.83 12.3 7.44H7.7ZM14.14 0.26C17.79 0.91 20.5 3.75 20.94 7.44H17.3C17.18 5.27 16.65 2.57 14.14 0.26ZM17.3 9.44H20.94C20.5 13.13 17.79 15.97 14.14 16.62C16.65 14.31 17.18 11.61 17.3 9.44Z" fill="currentColor"/>
</svg>