<svg xmlns="http://www.w3.org/2000/svg" xmlns:xlink="http://www.w3.org/1999/xlink" width="2560" zoomAndPan="magnify" viewBox="0 0 1920 1079.999946" height="1440" preserveAspectRatio="xMidYMid meet" version="1.2"><defs><clipPath id="c0e491ec80"><path d="M 0 295 L 1920 295 L 1920 1079.96875 L 0 1079.96875 Z M 0 295 "/></clipPath></defs><g id="98c977c15a"><g clip-rule="nonzero" clip-path="url(#c0e491ec80)"><path style=" stroke:none;fill-rule:evenodd;fill:#d9d9d9;fill-opacity:1;" d="M 74.101562 1079.453125 L 445 1079.453125 C 445 1079.453125 296.601562 942.382812 305.816406 840.0625 C 340.949219 696.847656 489.34375 711.628906 535.996094 851.578125 C 557.113281 914.738281 563.832031 1004.777344 565.367188 1079.453125 L 732 1079.453125 C 727.203125 980.777344 730.273438 868.855469 756.574219 788.035156 C 825.300781 578.015625 1094.640625 578.015625 1163.367188 788.035156 C 1200.804688 902.453125 1117.292969 1004.007812 1035.511719 1079.453125 L 1406.410156 1079.453125 C 1268.570312 766.152344 1573.234375 624.472656 1616.8125 851.578125 C 1628.910156 914.738281 1622.957031 1004.777344 1613.742188 1079.453125 L 1763.097656 1079.453125 C 1772.503906 1028.386719 1784.984375 973.484375 1801.300781 932.785156 C 1842 830.078125 1889.226562 844.859375 1889.226562 844.859375 C 1889.226562 844.859375 1905.351562 840.445312 1919.941406 853.5 L 1919.941406 792.835938 C 1260.699219 440.753906 669.609375 435.1875 0 793.027344 L 0 853.691406 C 125.167969 789.570312 114.800781 986.921875 74.101562 1079.453125 Z M 195.816406 473.582031 C 231.714844 473.582031 260.894531 502.761719 260.894531 538.660156 C 260.894531 574.558594 231.714844 603.738281 195.816406 603.738281 C 159.914062 603.738281 130.734375 574.558594 130.734375 538.660156 C 130.734375 502.761719 159.914062 473.582031 195.816406 473.582031 Z M 1723.9375 473.582031 C 1759.835938 473.582031 1789.015625 502.761719 1789.015625 538.660156 C 1789.015625 574.558594 1759.835938 603.738281 1723.9375 603.738281 C 1688.035156 603.738281 1658.855469 574.558594 1658.855469 538.660156 C 1658.855469 502.761719 1688.035156 473.582031 1723.9375 473.582031 Z M 632.175781 295.234375 C 682.664062 295.234375 723.554688 336.125 723.554688 386.617188 C 723.554688 437.105469 682.664062 477.996094 632.175781 477.996094 C 581.683594 477.996094 540.792969 437.105469 540.792969 386.617188 C 540.792969 336.125 581.875 295.234375 632.175781 295.234375 Z M 1287.578125 295.234375 C 1338.066406 295.234375 1378.957031 336.125 1378.957031 386.617188 C 1378.957031 437.105469 1338.066406 477.996094 1287.578125 477.996094 C 1237.085938 477.996094 1196.195312 437.105469 1196.195312 386.617188 C 1196.195312 336.125 1237.085938 295.234375 1287.578125 295.234375 Z M 1287.578125 295.234375 "/></g></g></svg>