<svg xmlns="http://www.w3.org/2000/svg" xmlns:xlink="http://www.w3.org/1999/xlink" width="2560" zoomAndPan="magnify" viewBox="0 0 1920 1079.999946" height="1440" preserveAspectRatio="xMidYMid meet" version="1.2"><defs/><g id="698941ef07"><g style="fill:#d9d9d9;fill-opacity:1;"><g transform="translate(93.995027, 850.124902)"><path style="stroke:none" d="M 260 -700.003906 C 277.066406 -695.734375 285.601562 -693.335938 285.601562 -692.800781 C 285.601562 -690.136719 288.265625 -688.535156 293.601562 -688.003906 C 294.132812 -686.402344 296.535156 -682.136719 300.800781 -675.203125 C 300.800781 -672.535156 304.269531 -666.933594 311.199219 -658.402344 L 309.601562 -656.800781 C 311.734375 -656.800781 314.667969 -644.003906 318.402344 -618.402344 C 318.402344 -610.402344 314.933594 -597.070312 308 -578.402344 C 309.601562 -566.667969 312.535156 -560.800781 316.800781 -560.800781 L 337.601562 -545.601562 L 340 -540.800781 L 339.199219 -539.203125 C 340.269531 -539.203125 341.335938 -538.667969 342.402344 -537.601562 C 343.46875 -540.800781 344.800781 -542.402344 346.402344 -542.402344 C 348 -541.867188 348.800781 -541.066406 348.800781 -540 C 348.800781 -537.867188 346.667969 -536.800781 342.402344 -536.800781 C 344.535156 -534.136719 345.601562 -531.46875 345.601562 -528.800781 L 344.800781 -522.402344 C 345.335938 -522.402344 345.601562 -522.136719 345.601562 -521.601562 C 346.667969 -521.601562 349.066406 -523.203125 352.800781 -526.402344 C 354.402344 -524.269531 355.199219 -521.867188 355.199219 -519.203125 L 349.601562 -512.800781 L 349.601562 -509.601562 C 353.335938 -509.601562 355.199219 -508.535156 355.199219 -506.402344 C 352 -506.402344 350.402344 -505.601562 350.402344 -504 L 350.402344 -502.402344 L 355.199219 -502.402344 C 355.199219 -504.535156 356.800781 -506.667969 360 -508.800781 L 358.402344 -511.203125 L 358.402344 -513.601562 C 359.46875 -515.203125 360.269531 -516 360.800781 -516 L 364 -516 C 365.066406 -514.402344 365.066406 -512.800781 364 -511.203125 C 364.535156 -510.136719 364.800781 -508.800781 364.800781 -507.203125 C 361.601562 -506.667969 360 -505.601562 360 -504 L 364.800781 -499.203125 C 367.46875 -500.800781 369.335938 -501.601562 370.402344 -501.601562 L 370.402344 -500.800781 C 370.933594 -499.203125 367.734375 -496.535156 360.800781 -492.800781 L 361.601562 -484.800781 C 360.535156 -483.734375 360 -482.933594 360 -482.402344 C 361.601562 -480.800781 363.199219 -480 364.800781 -480 C 373.867188 -481.066406 377.867188 -482.667969 376.800781 -484.800781 C 384.800781 -484.269531 388.800781 -483.203125 388.800781 -481.601562 C 380.269531 -471.46875 373.867188 -461.867188 369.601562 -452.800781 C 365.867188 -449.066406 362.132812 -446 358.402344 -443.601562 C 354.667969 -441.203125 350.933594 -438.933594 347.199219 -436.800781 C 344.535156 -433.066406 341.199219 -429.335938 337.199219 -425.601562 C 333.199219 -421.867188 328.535156 -418.132812 323.199219 -414.402344 C 323.199219 -411.203125 320.535156 -408.800781 315.199219 -407.203125 C 315.199219 -405.066406 313.066406 -401.335938 308.800781 -396 C 307.199219 -388.535156 302.402344 -376.800781 294.402344 -360.800781 L 292 -320 L 295.199219 -316 C 295.199219 -315.46875 294.667969 -315.199219 293.601562 -315.199219 C 294.667969 -308.269531 297.066406 -304.269531 300.800781 -303.199219 L 302.402344 -300.800781 C 296.535156 -297.601562 293.601562 -291.46875 293.601562 -282.402344 L 296 -282.402344 C 299.199219 -285.601562 302.667969 -288.265625 306.402344 -290.402344 L 306.402344 -288.800781 C 298.933594 -282.933594 294.667969 -274.667969 293.601562 -264 L 293.601562 -262.402344 L 296 -261.601562 C 299.199219 -263.734375 302.132812 -266.402344 304.800781 -269.601562 C 309.601562 -273.335938 315.199219 -278.667969 321.601562 -285.601562 L 322.402344 -285.601562 L 322.402344 -288 C 322.402344 -288 320.269531 -285.867188 316 -281.601562 L 314.402344 -283.199219 L 323.199219 -299.199219 L 320.800781 -299.199219 C 317.066406 -297.066406 315.46875 -294.667969 316 -292 L 313.601562 -292 L 313.601562 -292.800781 L 314.402344 -295.199219 C 312.800781 -295.199219 312 -296.535156 312 -299.199219 C 314.667969 -304 316.269531 -306.402344 316.800781 -306.402344 C 316.269531 -307.46875 316 -309.335938 316 -312 C 315.46875 -312 315.199219 -311.734375 315.199219 -311.199219 L 312.800781 -312 L 311.199219 -312 L 311.199219 -311.199219 L 313.601562 -311.199219 C 313.601562 -310.132812 310.667969 -307.46875 304.800781 -303.199219 C 303.199219 -303.199219 302.402344 -304 302.402344 -305.601562 L 320 -322.402344 C 322.132812 -323.46875 326.667969 -330.132812 333.601562 -342.402344 C 335.199219 -342.402344 336 -343.199219 336 -344.800781 L 334.402344 -344.800781 L 329.601562 -341.601562 L 328 -341.601562 L 328 -343.199219 C 333.867188 -345.867188 338.933594 -350.402344 343.199219 -356.800781 C 343.199219 -362.132812 358.402344 -376.269531 388.800781 -399.203125 C 388.800781 -400.269531 393.335938 -404.535156 402.402344 -412 C 402.402344 -412.535156 406.667969 -416.269531 415.203125 -423.203125 L 423.203125 -423.203125 L 423.203125 -421.601562 L 416.800781 -409.601562 L 418.402344 -409.601562 L 428.800781 -414.402344 L 436 -414.402344 C 446.667969 -410.132812 452 -405.066406 452 -399.203125 L 442.402344 -374.402344 L 442.402344 -373.601562 C 442.402344 -371.46875 443.203125 -369.066406 444.800781 -366.402344 C 443.203125 -366.402344 442.402344 -365.867188 442.402344 -364.800781 L 443.203125 -351.199219 C 443.203125 -350.667969 442.667969 -349.335938 441.601562 -347.199219 C 442.667969 -346.132812 443.203125 -344.535156 443.203125 -342.402344 L 443.203125 -341.601562 L 440.800781 -337.601562 L 440.800781 -336 L 444.800781 -332 C 441.601562 -328.800781 440 -326.132812 440 -324 C 442.667969 -324 444.535156 -319.46875 445.601562 -310.402344 C 445.066406 -306.667969 443.46875 -303.46875 440.800781 -300.800781 C 442.402344 -300.269531 443.203125 -299.734375 443.203125 -299.199219 C 441.066406 -294.402344 440 -290.667969 440 -288 C 441.066406 -285.867188 441.601562 -284.800781 441.601562 -284.800781 C 441.066406 -283.734375 440.800781 -282.667969 440.800781 -281.601562 L 443.203125 -282.402344 L 446.402344 -282.402344 L 446.402344 -281.601562 L 440.800781 -270.402344 L 438.402344 -270.402344 L 440 -264.800781 L 444.800781 -269.601562 L 445.601562 -269.601562 L 445.601562 -264 L 444 -260.800781 L 447.203125 -256 L 446.402344 -249.601562 C 448 -249.601562 449.066406 -248.535156 449.601562 -246.402344 L 449.601562 -243.199219 C 444.269531 -242.667969 441.601562 -241.066406 441.601562 -238.402344 C 444.269531 -238.402344 446.132812 -238.132812 447.203125 -237.601562 C 446.132812 -240.265625 448.269531 -241.601562 453.601562 -241.601562 L 452 -244.800781 L 460 -248.800781 C 460 -249.867188 461.335938 -250.933594 464 -252 L 464 -250.402344 L 461.601562 -248 C 461.601562 -248 462.667969 -247.46875 464.800781 -246.402344 C 465.867188 -248 466.667969 -248.800781 467.203125 -248.800781 L 469.601562 -248.800781 L 467.203125 -245.601562 L 467.203125 -241.601562 L 469.601562 -241.601562 L 469.601562 -238.402344 L 467.203125 -238.402344 L 467.203125 -237.601562 L 468 -237.601562 C 472.269531 -238.667969 474.402344 -239.734375 474.402344 -240.800781 L 474.402344 -241.601562 L 471.203125 -241.601562 L 471.203125 -243.199219 C 470.136719 -244.265625 470.402344 -244.800781 472 -244.800781 L 470.402344 -246.402344 L 470.402344 -248 L 471.203125 -249.601562 C 468.535156 -249.601562 466.667969 -251.199219 465.601562 -254.402344 L 464.800781 -254.402344 L 464.800781 -256 C 467.46875 -260.265625 470.667969 -263.199219 474.402344 -264.800781 C 474.402344 -266.402344 474.933594 -267.199219 476 -267.199219 L 474.402344 -269.601562 L 474.402344 -270.402344 C 476.535156 -270.402344 478.402344 -272.800781 480 -277.601562 L 482.402344 -277.601562 L 480.800781 -280 L 480.800781 -281.601562 C 485.601562 -281.601562 490.402344 -288 495.203125 -300.800781 C 496.269531 -300.800781 500.800781 -307.734375 508.800781 -321.601562 L 504.800781 -321.601562 C 504.800781 -321.601562 501.867188 -320.800781 496 -319.199219 C 493.867188 -319.199219 492.269531 -319.46875 491.203125 -320 L 483.203125 -316 C 469.867188 -328.800781 461.335938 -335.199219 457.601562 -335.199219 C 456 -336.269531 452.269531 -344.800781 446.402344 -360.800781 C 445.335938 -360.800781 444.800781 -361.335938 444.800781 -362.402344 C 447.46875 -367.199219 449.066406 -369.601562 449.601562 -369.601562 L 451.203125 -369.601562 C 452.800781 -369.601562 454.402344 -369.601562 456 -369.601562 C 457.601562 -369.601562 459.46875 -369.335938 461.601562 -368.800781 C 462.667969 -369.335938 464 -369.601562 465.601562 -369.601562 C 469.867188 -369.601562 472 -368.800781 472 -367.199219 C 473.601562 -367.199219 490.933594 -371.734375 524 -380.800781 C 524.535156 -381.335938 527.734375 -381.601562 533.601562 -381.601562 L 533.601562 -380.800781 L 538.402344 -383.203125 L 541.601562 -381.601562 C 542.667969 -382.667969 543.734375 -383.203125 544.800781 -383.203125 L 545.601562 -380.800781 L 548.800781 -381.601562 C 549.335938 -381.601562 549.601562 -381.335938 549.601562 -380.800781 C 550.136719 -381.335938 551.203125 -381.601562 552.800781 -381.601562 C 562.933594 -381.601562 568 -380.800781 568 -379.203125 C 572.269531 -380.800781 577.601562 -381.601562 584 -381.601562 L 583.203125 -388.800781 C 583.203125 -390.933594 582.933594 -392 582.402344 -392 L 583.203125 -397.601562 L 583.203125 -405.601562 C 582.667969 -412.535156 582.269531 -418.269531 582 -422.800781 C 581.734375 -427.335938 581.070312 -430.667969 580 -432.800781 L 580.800781 -434.402344 C 580.269531 -437.601562 578.933594 -439.203125 576.800781 -439.203125 L 578.402344 -444.800781 L 578.402344 -451.203125 L 574.402344 -455.203125 L 575.203125 -462.402344 L 570.402344 -470.402344 L 571.203125 -472.800781 C 571.203125 -474.933594 569.070312 -478.933594 564.800781 -484.800781 C 563.734375 -488 560.800781 -490.933594 556 -493.601562 L 553.601562 -492.800781 C 541.867188 -497.601562 525.066406 -502.402344 503.203125 -507.203125 C 503.203125 -507.734375 497.066406 -510.136719 484.800781 -514.402344 C 478.402344 -521.867188 475.203125 -526.933594 475.203125 -529.601562 C 490.667969 -539.734375 501.867188 -544.800781 508.800781 -544.800781 C 510.933594 -544.269531 512.535156 -543.867188 513.601562 -543.601562 C 514.667969 -543.335938 515.46875 -543.203125 516 -543.203125 C 520.269531 -545.335938 524.535156 -546.667969 528.800781 -547.203125 C 531.46875 -545.601562 533.601562 -544.800781 535.203125 -544.800781 L 540 -544.800781 C 542.136719 -544.800781 543.734375 -545.066406 544.800781 -545.601562 C 545.335938 -545.066406 547.203125 -544.800781 550.402344 -544.800781 L 557.601562 -545.601562 C 559.734375 -545.066406 562.402344 -544.800781 565.601562 -544.800781 L 571.203125 -545.601562 C 589.867188 -543.46875 601.601562 -541.335938 606.402344 -539.203125 L 608.800781 -540 C 618.933594 -538.402344 625.335938 -536.269531 628.003906 -533.601562 C 642.402344 -529.867188 652.003906 -524.535156 656.800781 -517.601562 C 658.933594 -517.601562 661.335938 -515.46875 664.003906 -511.203125 C 665.070312 -511.203125 674.136719 -503.46875 691.203125 -488 C 708.800781 -473.066406 718.136719 -463.203125 719.203125 -458.402344 C 718.667969 -457.335938 718.269531 -456.535156 718.003906 -456 C 717.734375 -455.46875 717.601562 -454.933594 717.601562 -454.402344 L 714.402344 -454.402344 L 712.800781 -460 L 712.003906 -460 L 712.003906 -454.402344 C 714.136719 -454.402344 716.003906 -452.535156 717.601562 -448.800781 C 718.667969 -442.933594 717.070312 -437.867188 712.800781 -433.601562 C 711.203125 -428.800781 710.402344 -425.601562 710.402344 -424 L 708.003906 -424 L 708.003906 -425.601562 C 708.003906 -426.667969 708.535156 -427.203125 709.601562 -427.203125 L 708.003906 -428.800781 L 709.601562 -431.203125 C 708.003906 -434.402344 706.667969 -436 705.601562 -436 L 700.800781 -404.800781 C 698.667969 -396.269531 697.867188 -390.933594 698.402344 -388.800781 L 696.003906 -388.800781 L 696.003906 -389.601562 C 696.535156 -404.535156 697.335938 -412 698.402344 -412 L 696.800781 -414.402344 L 696.800781 -420.800781 L 692.800781 -420.800781 C 692.800781 -419.734375 690.402344 -418.667969 685.601562 -417.601562 C 682.402344 -406.402344 681.070312 -394.933594 681.601562 -383.203125 L 682.402344 -383.203125 C 683.46875 -382.132812 684.003906 -381.335938 684.003906 -380.800781 C 684.003906 -379.203125 683.203125 -378.402344 681.601562 -378.402344 C 681.070312 -372.535156 680.800781 -367.46875 680.800781 -363.199219 C 680.800781 -358.933594 680.800781 -355.46875 680.800781 -352.800781 C 680.269531 -350.132812 679.867188 -348 679.601562 -346.402344 C 679.335938 -344.800781 679.203125 -343.734375 679.203125 -343.199219 C 681.335938 -343.199219 682.402344 -342.667969 682.402344 -341.601562 L 680.003906 -337.601562 L 681.601562 -335.199219 C 681.601562 -334.132812 681.335938 -332.800781 680.800781 -331.199219 C 681.335938 -330.132812 681.601562 -328.800781 681.601562 -327.199219 L 680.800781 -324.800781 L 682.402344 -322.402344 L 680.003906 -316 L 682.402344 -315.199219 L 680.003906 -310.402344 L 681.601562 -308 L 680.800781 -300.800781 C 680.800781 -298.667969 681.070312 -297.601562 681.601562 -297.601562 C 681.070312 -293.867188 680.667969 -290.402344 680.402344 -287.199219 C 680.136719 -284 679.46875 -281.066406 678.402344 -278.402344 C 680.535156 -278.402344 681.601562 -277.335938 681.601562 -275.199219 C 680.003906 -271.46875 678.933594 -269.601562 678.402344 -269.601562 L 679.203125 -267.199219 L 679.203125 -264.800781 L 676.800781 -261.601562 L 676.800781 -259.199219 C 678.933594 -254.402344 680.003906 -251.199219 680.003906 -249.601562 C 680.003906 -246.933594 679.203125 -245.601562 677.601562 -245.601562 L 679.203125 -243.199219 C 679.734375 -228.265625 674.667969 -217.066406 664.003906 -209.601562 L 660.003906 -212 C 658.402344 -212 657.335938 -208.535156 656.800781 -201.601562 L 660.003906 -200 L 663.203125 -202.402344 L 665.601562 -199.199219 L 665.601562 -188.800781 L 666.402344 -188.800781 C 668.003906 -188.800781 668.800781 -189.601562 668.800781 -191.199219 L 673.601562 -188.800781 C 673.070312 -177.066406 670.136719 -171.199219 664.800781 -171.199219 L 665.601562 -165.601562 L 668.003906 -162.402344 C 666.933594 -162.402344 665.867188 -160.265625 664.800781 -156 L 668.003906 -156 L 670.402344 -157.601562 L 671.203125 -155.199219 L 672.003906 -145.601562 C 672.003906 -145.066406 671.46875 -144.800781 670.402344 -144.800781 L 672.003906 -142.402344 L 672.003906 -141.601562 C 672.535156 -133.066406 671.203125 -127.199219 668.003906 -124 L 668.003906 -119.199219 C 671.203125 -119.199219 672.800781 -118.398438 672.800781 -116.800781 L 672.800781 -115.199219 C 671.203125 -111.46875 668.535156 -108.535156 664.800781 -106.398438 L 666.402344 -98.398438 L 666.402344 -91.199219 C 666.933594 -86.398438 666.402344 -79.199219 664.800781 -69.601562 L 664.800781 -68 L 666.402344 -68 C 666.402344 -71.734375 667.734375 -73.601562 670.402344 -73.601562 L 672.003906 -71.199219 C 670.933594 -64.265625 670.003906 -58.933594 669.203125 -55.199219 C 668.402344 -51.46875 668.003906 -49.066406 668.003906 -48 C 669.070312 -40 669.867188 -35.734375 670.402344 -35.199219 L 669.601562 -32.800781 L 672.800781 -25.601562 C 672.800781 -25.066406 672.269531 -24.800781 671.203125 -24.800781 C 672.269531 -20.535156 672.800781 -17.601562 672.800781 -16 L 673.601562 -16 C 673.601562 -23.464844 674.402344 -27.199219 676.003906 -27.199219 C 679.203125 -27.199219 680.800781 -21.332031 680.800781 -9.601562 L 681.601562 7.199219 C 681.601562 9.332031 680.535156 10.398438 678.402344 10.398438 L 678.402344 14.398438 C 676.800781 24 672.800781 28.800781 666.402344 28.800781 C 664.269531 27.734375 662.667969 27.199219 661.601562 27.199219 C 658.402344 28.265625 656.800781 28.800781 656.800781 28.800781 C 650.402344 23.464844 642.402344 19.199219 632.800781 16 C 629.601562 17.066406 627.203125 17.601562 625.601562 17.601562 L 624 17.601562 C 622.933594 16.535156 621.46875 15.601562 619.601562 14.800781 C 617.734375 14 615.734375 13.332031 613.601562 12.800781 C 613.601562 11.199219 612.800781 10.398438 611.203125 10.398438 L 608 10.398438 C 608 10.398438 605.070312 11.199219 599.203125 12.800781 L 597.601562 12.800781 C 582.667969 5.867188 575.203125 -1.332031 575.203125 -8.800781 C 571.46875 -17.867188 567.203125 -24.800781 562.402344 -29.601562 C 564 -29.601562 564.800781 -30.398438 564.800781 -32 L 559.203125 -33.601562 L 558.402344 -36 L 560.800781 -36 C 560.800781 -37.066406 557.070312 -39.734375 549.601562 -44 L 549.601562 -48 C 546.402344 -48 542.136719 -51.46875 536.800781 -58.398438 C 536.269531 -58.398438 536 -58.667969 536 -59.199219 L 536 -60.800781 L 540 -66.398438 C 538.933594 -66.398438 538.402344 -66.933594 538.402344 -68 L 538.402344 -69.601562 L 539.203125 -69.601562 L 564 -59.199219 C 564 -61.867188 564.800781 -63.199219 566.402344 -63.199219 C 566.402344 -62.132812 566.667969 -61.601562 567.203125 -61.601562 C 571.46875 -61.601562 573.070312 -73.601562 572 -97.601562 L 570.402344 -97.601562 C 569.335938 -97.601562 568.269531 -97.066406 567.203125 -96 C 565.070312 -97.066406 564 -97.601562 564 -97.601562 C 564 -96.535156 562.667969 -95.46875 560 -94.398438 L 558.402344 -95.199219 C 558.402344 -94.132812 557.070312 -92.800781 554.402344 -91.199219 C 553.867188 -91.199219 553.601562 -91.734375 553.601562 -92.800781 L 551.203125 -91.199219 C 550.136719 -91.199219 548.667969 -91.332031 546.800781 -91.601562 C 544.933594 -91.867188 542.933594 -92.265625 540.800781 -92.800781 L 538.402344 -91.199219 C 538.402344 -91.199219 537.867188 -91.734375 536.800781 -92.800781 L 531.203125 -91.199219 L 528 -91.199219 C 525.867188 -91.199219 524.269531 -91.734375 523.203125 -92.800781 L 520.800781 -91.199219 C 520.269531 -91.199219 520 -91.734375 520 -92.800781 C 516.800781 -91.734375 515.203125 -91.199219 515.203125 -91.199219 C 503.46875 -91.199219 497.601562 -92.535156 497.601562 -95.199219 L 492 -94.398438 L 489.601562 -94.398438 L 486.402344 -96 L 484.800781 -96 C 482.667969 -96 481.335938 -95.734375 480.800781 -95.199219 C 463.734375 -97.867188 451.46875 -103.199219 444 -111.199219 C 439.734375 -118.667969 437.066406 -125.867188 436 -132.800781 L 436 -135.199219 C 434.402344 -136.800781 433.335938 -137.601562 432.800781 -137.601562 C 432.800781 -137.066406 432.535156 -136.800781 432 -136.800781 L 433.601562 -128.800781 L 433.601562 -125.601562 C 433.601562 -123.46875 432.800781 -122.398438 431.203125 -122.398438 C 424.800781 -129.867188 420 -133.601562 416.800781 -133.601562 L 416 -131.199219 C 417.066406 -130.132812 417.601562 -129.332031 417.601562 -128.800781 L 417.601562 -128 C 415.46875 -125.867188 414.402344 -122.667969 414.402344 -118.398438 L 411.203125 -118.398438 C 411.203125 -118.398438 410.535156 -119.066406 409.203125 -120.398438 C 407.867188 -121.734375 405.867188 -123.734375 403.203125 -126.402344 L 401.601562 -126.402344 L 397.601562 -122.398438 L 395.203125 -122.398438 C 391.46875 -122.933594 386.667969 -131.199219 380.800781 -147.199219 C 378.667969 -147.199219 377.335938 -150.667969 376.800781 -157.601562 C 379.46875 -157.601562 381.601562 -162.132812 383.203125 -171.199219 C 382.667969 -172.265625 382.402344 -173.867188 382.402344 -176 C 383.46875 -176 384 -176.800781 384 -178.402344 C 384 -180 383.734375 -180.800781 383.203125 -180.800781 C 385.335938 -213.335938 388 -229.601562 391.203125 -229.601562 L 390.402344 -234.402344 L 400.800781 -297.601562 L 398.402344 -302.402344 C 401.066406 -302.402344 402.667969 -311.199219 403.203125 -328.800781 L 404 -328.800781 C 404 -329.335938 403.734375 -329.601562 403.203125 -329.601562 C 403.203125 -338.667969 404.269531 -344.269531 406.402344 -346.402344 L 405.601562 -355.199219 C 406.132812 -361.601562 406.535156 -366.667969 406.800781 -370.402344 C 407.066406 -374.132812 407.203125 -376.269531 407.203125 -376.800781 L 409.601562 -376.800781 L 409.601562 -379.203125 C 411.203125 -389.867188 412 -397.066406 412 -400.800781 C 410.933594 -399.734375 407.734375 -393.066406 402.402344 -380.800781 C 401.335938 -380.800781 399.46875 -378.667969 396.800781 -374.402344 L 396 -374.402344 C 394.933594 -377.066406 393.867188 -378.402344 392.800781 -378.402344 L 392.800781 -376.800781 L 393.601562 -374.402344 L 391.203125 -373.601562 L 392.800781 -371.199219 C 386.402344 -364.269531 382.132812 -360.800781 380 -360.800781 L 380 -362.402344 C 369.867188 -354.402344 364.800781 -347.734375 364.800781 -342.402344 L 364.800781 -340 L 366.402344 -340 C 367.46875 -340 373.601562 -347.46875 384.800781 -362.402344 C 386.402344 -362.402344 390.132812 -365.335938 396 -371.199219 L 398.402344 -367.199219 L 398.402344 -366.402344 C 396.800781 -362.132812 392 -355.46875 384 -346.402344 C 384.535156 -346.402344 384.800781 -345.867188 384.800781 -344.800781 L 383.203125 -343.199219 C 382.132812 -345.867188 381.335938 -347.199219 380.800781 -347.199219 C 379.734375 -346.667969 378.402344 -346.402344 376.800781 -346.402344 L 376.800781 -343.199219 C 380.535156 -343.199219 382.402344 -340.269531 382.402344 -334.402344 C 379.203125 -333.867188 377.601562 -331.199219 377.601562 -326.402344 L 379.203125 -324 C 378.132812 -321.867188 377.867188 -320.269531 378.402344 -319.199219 L 376 -319.199219 L 374.402344 -327.199219 L 370.402344 -324.800781 L 369.601562 -324.800781 L 369.601562 -326.402344 L 370.402344 -332 L 367.199219 -332 C 357.601562 -312.800781 351.734375 -303.199219 349.601562 -303.199219 C 349.066406 -300 347.199219 -296.800781 344 -293.601562 L 341.601562 -295.199219 L 340.800781 -292.800781 L 340.800781 -292 L 343.199219 -292.800781 L 344 -292.800781 L 344 -292 C 344 -290.933594 338.933594 -286.402344 328.800781 -278.402344 C 328.800781 -276.265625 328 -275.199219 326.402344 -275.199219 C 328 -272 328.800781 -269.335938 328.800781 -267.199219 L 323.199219 -272.800781 L 320.800781 -272.800781 L 321.601562 -267.199219 L 320.800781 -264.800781 L 321.601562 -264.800781 L 324.800781 -266.402344 C 324.800781 -264.800781 325.601562 -264 327.199219 -264 C 335.734375 -270.402344 341.335938 -276.535156 344 -282.402344 L 349.601562 -281.601562 C 350.132812 -282.132812 351.199219 -282.402344 352.800781 -282.402344 L 352 -288.800781 C 352 -290.402344 354.933594 -292.535156 360.800781 -295.199219 L 361.601562 -295.199219 C 363.199219 -295.199219 364 -294.402344 364 -292.800781 C 362.933594 -292.800781 358.667969 -286.667969 351.199219 -274.402344 L 339.199219 -260.800781 C 339.734375 -260.800781 341.066406 -260.265625 343.199219 -259.199219 C 343.734375 -261.867188 345.867188 -263.734375 349.601562 -264.800781 L 348.800781 -267.199219 L 348.800781 -268 C 350.933594 -268 354.667969 -271.46875 360 -278.402344 L 361.601562 -276.800781 C 359.46875 -276.800781 357.867188 -273.601562 356.800781 -267.199219 L 341.601562 -254.402344 L 340.800781 -254.402344 C 340.269531 -254.402344 339.46875 -256 338.402344 -259.199219 C 336.269531 -258.667969 335.199219 -256.265625 335.199219 -252 C 335.734375 -250.933594 336 -249.867188 336 -248.800781 C 332.800781 -246.667969 331.199219 -243.199219 331.199219 -238.402344 C 327.46875 -233.066406 324.535156 -230.402344 322.402344 -230.402344 C 318.132812 -224.535156 316 -220.265625 316 -217.601562 C 316.535156 -216.535156 316.800781 -215.46875 316.800781 -214.402344 C 315.734375 -214.402344 315.199219 -213.601562 315.199219 -212 C 317.335938 -212 318.402344 -211.46875 318.402344 -210.402344 L 310.402344 -199.199219 L 310.402344 -198.402344 C 310.933594 -198.402344 312.535156 -196.265625 315.199219 -192 C 314.132812 -186.132812 312.535156 -181.601562 310.402344 -178.402344 C 308.269531 -179.46875 306.933594 -180 306.402344 -180 C 305.335938 -176.800781 303.199219 -174.402344 300 -172.800781 L 299.199219 -172.800781 L 298.402344 -175.199219 C 297.335938 -175.199219 293.601562 -170.132812 287.199219 -160 C 284.535156 -157.332031 282.402344 -156 280.800781 -156 L 280.800781 -157.601562 C 282.402344 -161.867188 283.199219 -164.535156 283.199219 -165.601562 L 283.199219 -166.402344 L 281.601562 -166.402344 L 277.601562 -153.601562 C 279.199219 -151.46875 280 -149.332031 280 -147.199219 L 280 -141.601562 L 282.402344 -141.601562 L 283.199219 -134.402344 L 282.402344 -132.800781 C 282.933594 -132.800781 283.199219 -132.265625 283.199219 -131.199219 C 281.066406 -131.199219 280 -127.199219 280 -119.199219 L 284 -119.199219 C 284 -120.265625 283.734375 -120.800781 283.199219 -120.800781 C 282.667969 -130.402344 284.265625 -135.199219 288 -135.199219 L 288 -142.402344 C 289.601562 -142.402344 290.402344 -141.601562 290.402344 -140 L 291.199219 -131.199219 L 289.601562 -128.800781 C 291.199219 -128.800781 292 -128 292 -126.402344 L 292 -125.601562 L 291.199219 -119.199219 C 292.800781 -119.199219 293.601562 -118.132812 293.601562 -116 C 293.601562 -97.332031 292.800781 -88 291.199219 -88 L 294.402344 -67.199219 L 293.601562 -67.199219 C 295.734375 -62.398438 297.335938 -53.867188 298.402344 -41.601562 C 297.867188 -41.066406 297.601562 -40 297.601562 -38.398438 C 299.734375 -38.398438 301.601562 -35.734375 303.199219 -30.398438 C 304.800781 -30.398438 305.601562 -29.601562 305.601562 -28 L 305.601562 -23.199219 L 304.800781 -20.800781 C 305.867188 -20.800781 306.402344 -20.535156 306.402344 -20 C 297.867188 -16.265625 293.867188 -8.265625 294.402344 4 C 296.535156 4 298.402344 7.464844 300 14.398438 L 298.402344 14.398438 C 311.199219 26.667969 317.867188 41.332031 318.402344 58.398438 C 317.867188 61.601562 316.800781 63.199219 315.199219 63.199219 L 312.800781 63.199219 C 310.667969 63.199219 309.066406 62.667969 308 61.601562 C 305.335938 63.734375 302.933594 64.800781 300.800781 64.800781 L 300.800781 63.199219 C 300.269531 63.199219 300 63.734375 300 64.800781 L 294.402344 63.199219 L 287.199219 63.199219 C 287.199219 66.933594 286.402344 68.800781 284.800781 68.800781 C 282.667969 68.800781 277.066406 65.867188 268 60 C 265.867188 62.132812 260.265625 63.734375 251.199219 64.800781 C 246.402344 62.132812 244 60.535156 244 60 L 241.601562 60.800781 L 238.402344 58.398438 L 232.800781 60 C 228.535156 60 223.734375 52.535156 218.402344 37.601562 L 217.601562 31.199219 L 216.800781 24 C 217.335938 22.933594 217.601562 21.867188 217.601562 20.800781 C 216.535156 18.132812 215.734375 16.800781 215.199219 16.800781 L 224 -20.800781 L 223.199219 -23.199219 C 223.199219 -24.265625 223.46875 -24.800781 224 -24.800781 L 222.402344 -30.398438 L 222.402344 -32 C 222.402344 -91.734375 223.199219 -121.601562 224.800781 -121.601562 C 223.734375 -122.667969 223.199219 -124.800781 223.199219 -128 L 221.601562 -128 C 221.601562 -124.800781 219.199219 -121.867188 214.402344 -119.199219 C 214.402344 -112.800781 209.867188 -106.667969 200.800781 -100.800781 C 198.132812 -100.800781 194.933594 -99.734375 191.199219 -97.601562 L 188.800781 -98.398438 C 186.667969 -97.867188 184.933594 -97.601562 183.601562 -97.601562 C 182.265625 -97.601562 181.066406 -97.601562 180 -97.601562 C 179.46875 -97.601562 179.199219 -97.867188 179.199219 -98.398438 C 168.535156 -97.332031 163.199219 -96.265625 163.199219 -95.199219 C 158.933594 -95.734375 154.800781 -96.535156 150.800781 -97.601562 C 146.800781 -98.667969 143.46875 -99.734375 140.800781 -100.800781 L 138.402344 -100 C 129.867188 -100.535156 116.800781 -108.535156 99.199219 -124 C 98.132812 -129.332031 95.734375 -133.867188 92 -137.601562 C 92 -140.265625 92.265625 -141.867188 92.800781 -142.402344 C 91.199219 -145.066406 90.398438 -147.46875 90.398438 -149.601562 C 90.398438 -150.667969 90.398438 -152.132812 90.398438 -154 C 90.398438 -155.867188 90.667969 -157.867188 91.199219 -160 C 90.667969 -160.535156 90.398438 -162.132812 90.398438 -164.800781 L 91.199219 -164.800781 L 89.601562 -166.402344 L 89.601562 -172.800781 C 94.398438 -177.601562 100 -182.132812 106.398438 -186.402344 C 109.601562 -197.066406 114.398438 -205.601562 120.800781 -212 C 120.800781 -213.066406 120.265625 -213.601562 119.199219 -213.601562 C 120.265625 -218.402344 121.332031 -220.800781 122.398438 -220.800781 L 121.601562 -223.199219 C 126.933594 -226.402344 129.332031 -229.867188 128.800781 -233.601562 L 127.199219 -232.800781 L 125.601562 -232.800781 L 125.601562 -233.601562 C 125.601562 -235.199219 126.402344 -236 128 -236 L 130.402344 -234.402344 L 131.199219 -239.199219 C 130.667969 -240.265625 130.402344 -241.601562 130.402344 -243.199219 C 133.066406 -244.800781 134.402344 -248.535156 134.402344 -254.402344 L 136 -254.402344 L 136.800781 -252 L 137.601562 -252 C 137.601562 -253.601562 137.867188 -254.402344 138.402344 -254.402344 L 137.601562 -256.800781 C 140.800781 -268 143.734375 -274.132812 146.402344 -275.199219 C 146.402344 -280.535156 149.066406 -287.46875 154.402344 -296 C 154.402344 -298.667969 159.199219 -308.269531 168.800781 -324.800781 C 168.800781 -328.535156 171.734375 -332.800781 177.601562 -337.601562 C 182.402344 -348.269531 186.667969 -355.734375 190.402344 -360 L 190.402344 -360.800781 C 190.402344 -362.402344 189.601562 -363.199219 188 -363.199219 L 185.601562 -363.199219 C 183.46875 -363.199219 181.066406 -363.199219 178.402344 -363.199219 C 175.734375 -363.199219 172.265625 -362.933594 168 -362.402344 C 168 -364 167.46875 -364.800781 166.402344 -364.800781 L 163.199219 -362.402344 L 160.800781 -362.402344 C 154.933594 -362.402344 152 -363.199219 152 -364.800781 L 149.601562 -363.199219 L 148.800781 -363.199219 C 146.132812 -364.800781 144.800781 -365.867188 144.800781 -366.402344 L 141.601562 -365.601562 L 139.199219 -365.601562 C 136.535156 -367.734375 132.265625 -370.402344 126.402344 -373.601562 C 120.535156 -376.800781 113.066406 -380.535156 104 -384.800781 C 104 -388.535156 97.601562 -395.203125 84.800781 -404.800781 C 82.132812 -409.066406 80.535156 -412.535156 80 -415.203125 C 73.601562 -421.601562 69.867188 -425.867188 68.800781 -428 C 69.867188 -429.066406 70.398438 -430.667969 70.398438 -432.800781 C 67.199219 -439.734375 65.066406 -443.203125 64 -443.203125 C 65.601562 -451.203125 66.398438 -458.136719 66.398438 -464 C 64.265625 -464 63.199219 -464.800781 63.199219 -466.402344 C 68 -482.933594 74.667969 -491.203125 83.199219 -491.203125 L 89.601562 -490.402344 C 88.535156 -491.46875 89.601562 -492.535156 92.800781 -493.601562 L 100 -493.601562 C 103.199219 -491.46875 108 -489.867188 114.398438 -488.800781 C 118.667969 -488.269531 123.46875 -486.136719 128.800781 -482.402344 L 131.199219 -482.402344 C 141.867188 -482.402344 171.46875 -497.867188 220 -528.800781 C 223.199219 -532.535156 226 -535.734375 228.402344 -538.402344 C 230.800781 -541.066406 233.066406 -543.203125 235.199219 -544.800781 C 236.800781 -552.800781 238.132812 -556.800781 239.199219 -556.800781 C 239.199219 -557.867188 237.601562 -560.269531 234.402344 -564 L 234.402344 -566.402344 L 240 -565.601562 L 241.601562 -565.601562 C 241.601562 -566.136719 242.132812 -568 243.199219 -571.203125 L 243.199219 -578.402344 C 244.265625 -585.867188 244.933594 -593.734375 245.199219 -602 C 245.46875 -610.269531 245.335938 -618.933594 244.800781 -628.003906 C 244.800781 -632.269531 243.199219 -637.070312 240 -642.402344 C 240.535156 -643.46875 240.800781 -645.335938 240.800781 -648.003906 C 240.265625 -648.003906 237.066406 -652.003906 231.199219 -660.003906 L 232.800781 -662.402344 L 231.199219 -668.003906 L 232 -668.003906 C 231.46875 -669.070312 231.199219 -670.402344 231.199219 -672.003906 C 231.734375 -672.535156 232 -673.601562 232 -675.203125 C 230.933594 -675.203125 230.402344 -675.46875 230.402344 -676.003906 L 236 -686.402344 C 242.402344 -695.46875 250.402344 -700.003906 260 -700.003906 Z M 350.402344 -436 L 352 -433.601562 C 352 -432 351.199219 -431.203125 349.601562 -431.203125 L 348.800781 -433.601562 C 349.867188 -435.203125 350.402344 -436 350.402344 -436 Z M 688.800781 -416.800781 L 692.800781 -418.402344 L 693.601562 -416.800781 C 693.601562 -413.066406 692.800781 -411.203125 691.203125 -411.203125 L 692.800781 -408 L 692.800781 -405.601562 C 692.800781 -404 691.734375 -402.933594 689.601562 -402.402344 C 689.601562 -403.46875 689.070312 -404 688.003906 -404 C 688.535156 -407.734375 689.335938 -409.601562 690.402344 -409.601562 C 690.402344 -409.601562 689.867188 -412 688.800781 -416.800781 Z M 687.203125 -392 L 688.800781 -392 L 688.800781 -390.402344 C 687.203125 -388.800781 686.402344 -387.46875 686.402344 -386.402344 L 684.003906 -386.402344 L 684.003906 -388.800781 C 684.003906 -390.402344 685.070312 -391.46875 687.203125 -392 Z M 340 -357.601562 L 340 -358.402344 L 341.601562 -358.402344 L 341.601562 -357.601562 Z M 337.601562 -356.800781 L 338.402344 -353.601562 C 338.402344 -352 337.601562 -351.199219 336 -351.199219 L 335.199219 -351.199219 L 335.199219 -353.601562 C 335.199219 -355.734375 336 -356.800781 337.601562 -356.800781 Z M 400 -353.601562 L 400 -351.199219 C 400 -350.132812 398.667969 -348.800781 396 -347.199219 L 394.402344 -347.199219 C 394.933594 -349.335938 396.800781 -351.46875 400 -353.601562 Z M 559.203125 -336 L 559.203125 -331.199219 L 560.800781 -328.800781 C 554.933594 -326.132812 550.136719 -320 546.402344 -310.402344 C 546.402344 -308.800781 545.066406 -307.46875 542.402344 -306.402344 C 541.335938 -308.535156 540.800781 -309.867188 540.800781 -310.402344 C 537.066406 -310.402344 532.800781 -307.199219 528 -300.800781 L 530.402344 -300 L 534.402344 -303.199219 L 536.800781 -303.199219 L 536.800781 -300.800781 C 535.734375 -298.667969 534.667969 -296 533.601562 -292.800781 C 531.46875 -294.402344 529.335938 -295.199219 527.203125 -295.199219 L 522.402344 -295.199219 C 520.800781 -295.199219 520 -294.402344 520 -292.800781 L 524 -292.800781 L 524 -292 C 519.203125 -286.667969 516 -281.066406 514.402344 -275.199219 C 511.734375 -275.199219 508.800781 -272.265625 505.601562 -266.402344 C 504 -266.402344 502.136719 -264.535156 500 -260.800781 L 494.402344 -261.601562 L 492 -261.601562 C 492 -255.734375 489.867188 -251.46875 485.601562 -248.800781 C 484 -248.800781 483.203125 -249.335938 483.203125 -250.402344 L 483.203125 -252 C 484.269531 -252 485.867188 -252.535156 488 -253.601562 L 486.402344 -256 L 498.402344 -272.800781 L 498.402344 -275.199219 L 497.601562 -275.199219 L 492.800781 -269.601562 C 491.734375 -270.132812 490.667969 -270.402344 489.601562 -270.402344 L 488 -268 C 490.136719 -268 491.203125 -267.46875 491.203125 -266.402344 L 480 -252 L 474.402344 -252 L 474.402344 -248.800781 C 475.46875 -246.667969 476.269531 -244.800781 476.800781 -243.199219 C 477.335938 -241.601562 477.867188 -240.265625 478.402344 -239.199219 C 477.335938 -238.667969 476 -238.402344 474.402344 -238.402344 L 474.402344 -237.601562 L 475.203125 -237.601562 L 529.601562 -250.402344 L 529.601562 -249.601562 C 531.734375 -250.667969 534.402344 -251.46875 537.601562 -252 C 540.800781 -252.535156 544.800781 -253.066406 549.601562 -253.601562 L 564 -250.402344 L 566.402344 -252 C 568 -251.46875 569.46875 -251.066406 570.800781 -250.800781 C 572.136719 -250.535156 573.335938 -250.402344 574.402344 -250.402344 C 576.535156 -252.535156 579.203125 -253.601562 582.402344 -253.601562 C 580.800781 -256.800781 580 -259.199219 580 -260.800781 C 581.070312 -262.933594 582.136719 -268.535156 583.203125 -277.601562 L 581.601562 -280 C 581.601562 -279.46875 582.933594 -282.402344 585.601562 -288.800781 C 584.535156 -288.800781 583.46875 -290.402344 582.402344 -293.601562 C 584 -300 584.800781 -309.601562 584.800781 -322.402344 L 584 -339.199219 C 579.203125 -339.199219 576.800781 -340.535156 576.800781 -343.199219 L 569.601562 -343.199219 C 567.46875 -338.402344 564 -336 559.203125 -336 Z M 372.800781 -339.199219 L 373.601562 -339.199219 C 375.199219 -339.199219 376.269531 -340.269531 376.800781 -342.402344 L 376 -342.402344 C 374.402344 -342.402344 373.335938 -341.335938 372.800781 -339.199219 Z M 385.601562 -339.199219 L 385.601562 -341.601562 L 387.203125 -341.601562 C 387.203125 -340 386.667969 -339.199219 385.601562 -339.199219 Z M 316 -331.199219 L 317.601562 -331.199219 L 317.601562 -329.601562 C 317.601562 -329.066406 317.335938 -328.800781 316.800781 -328.800781 L 317.601562 -326.402344 L 317.601562 -324.800781 C 317.601562 -324.269531 316 -322.402344 312.800781 -319.199219 C 310.667969 -319.199219 309.601562 -320 309.601562 -321.601562 C 313.867188 -324.800781 316 -328 316 -331.199219 Z M 628.003906 -320 L 628.003906 -319.199219 C 628.535156 -319.734375 629.867188 -320 632.003906 -320 L 632.003906 -327.199219 L 631.203125 -327.199219 C 628.535156 -326.132812 627.46875 -323.734375 628.003906 -320 Z M 324.800781 -316.800781 L 324.800781 -318.402344 L 322.402344 -318.402344 C 322.402344 -317.867188 322.402344 -317.066406 322.402344 -316 C 322.402344 -314.933594 322.132812 -313.335938 321.601562 -311.199219 L 325.601562 -308.800781 C 325.066406 -310.933594 327.734375 -314.132812 333.601562 -318.402344 L 333.601562 -319.199219 C 332 -317.601562 329.066406 -316.800781 324.800781 -316.800781 Z M 327.199219 -303.199219 L 327.199219 -302.402344 C 333.601562 -306.667969 337.066406 -310.402344 337.601562 -313.601562 L 337.601562 -318.402344 C 332.800781 -315.199219 329.335938 -310.132812 327.199219 -303.199219 Z M 554.402344 -319.199219 L 557.601562 -319.199219 L 557.601562 -316.800781 C 555.46875 -316.800781 554.402344 -317.601562 554.402344 -319.199219 Z M 556 -316.800781 L 556 -316 C 555.46875 -312.269531 553.867188 -310.402344 551.203125 -310.402344 L 550.402344 -310.402344 L 550.402344 -311.199219 C 550.402344 -312.800781 552.269531 -314.667969 556 -316.800781 Z M 304 -315.199219 L 305.601562 -315.199219 L 305.601562 -313.601562 C 305.601562 -312 304.800781 -311.199219 303.199219 -311.199219 L 300.800781 -311.199219 C 300.800781 -312.269531 301.867188 -313.601562 304 -315.199219 Z M 196.800781 -280 L 196 -280 L 195.199219 -284.800781 C 193.601562 -283.734375 191.066406 -280.933594 187.601562 -276.402344 C 184.132812 -271.867188 179.46875 -265.335938 173.601562 -256.800781 C 170.933594 -256.800781 169.332031 -253.335938 168.800781 -246.402344 L 166.402344 -246.402344 L 166.402344 -245.601562 L 170.402344 -245.601562 L 170.402344 -241.601562 L 168.800781 -241.601562 C 168.265625 -242.132812 167.734375 -242.535156 167.199219 -242.800781 C 166.667969 -243.066406 166.402344 -243.199219 166.402344 -243.199219 C 163.199219 -232.535156 161.332031 -227.199219 160.800781 -227.199219 C 161.332031 -225.601562 161.601562 -224.265625 161.601562 -223.199219 L 163.199219 -223.199219 L 164 -229.601562 L 166.402344 -229.601562 L 166.402344 -227.199219 L 165.601562 -224 C 166.667969 -224 167.199219 -223.46875 167.199219 -222.402344 C 166.132812 -222.402344 163.734375 -219.734375 160 -214.402344 L 158.402344 -214.402344 L 158.402344 -216.800781 L 160.800781 -220 L 160.800781 -222.402344 L 160 -222.402344 C 158.402344 -222.402344 156.800781 -219.734375 155.199219 -214.402344 L 157.601562 -214.402344 L 157.601562 -213.601562 L 155.199219 -209.601562 L 159.199219 -209.601562 C 157.601562 -204.265625 156.800781 -200.800781 156.800781 -199.199219 C 159.46875 -200.800781 161.332031 -201.601562 162.402344 -201.601562 L 161.601562 -203.199219 C 163.734375 -207.46875 164.800781 -210.933594 164.800781 -213.601562 L 167.199219 -213.601562 C 167.199219 -211.46875 166.402344 -209.066406 164.800781 -206.402344 L 167.199219 -204.800781 L 188.800781 -220 C 190.933594 -224.265625 194.933594 -227.734375 200.800781 -230.402344 L 200.800781 -228 C 191.199219 -219.46875 186.402344 -214.933594 186.402344 -214.402344 C 186.402344 -213.867188 186.667969 -213.601562 187.199219 -213.601562 C 187.199219 -212.535156 185.601562 -209.601562 182.402344 -204.800781 L 182.402344 -203.199219 L 183.199219 -203.199219 C 189.066406 -210.667969 192.800781 -214.402344 194.402344 -214.402344 L 196.800781 -213.601562 C 197.867188 -214.132812 198.933594 -214.402344 200 -214.402344 L 200 -216.800781 L 197.601562 -215.199219 L 196.800781 -215.199219 L 196.800781 -216.800781 L 208 -228 L 208.800781 -228 L 209.601562 -222.402344 C 212.800781 -222.933594 216.535156 -225.335938 220.800781 -229.601562 C 220.800781 -233.867188 219.199219 -236 216 -236 L 220 -240.800781 C 219.46875 -240.800781 219.199219 -241.066406 219.199219 -241.601562 L 220.800781 -243.199219 L 220 -245.601562 L 220 -249.601562 C 221.066406 -252.800781 222.933594 -254.402344 225.601562 -254.402344 C 225.601562 -267.199219 226.132812 -274.132812 227.199219 -275.199219 C 227.199219 -276.265625 226.667969 -276.800781 225.601562 -276.800781 C 226.132812 -279.46875 226.402344 -283.734375 226.402344 -289.601562 C 226.402344 -295.46875 226.667969 -302.667969 227.199219 -311.199219 L 220 -311.199219 C 215.199219 -305.867188 212.535156 -303.199219 212 -303.199219 C 209.867188 -300.535156 208.132812 -297.734375 206.800781 -294.800781 C 205.46875 -291.867188 204.265625 -288.800781 203.199219 -285.601562 C 201.066406 -285.601562 198.933594 -283.734375 196.800781 -280 Z M 220 -304 L 220 -306.402344 L 221.601562 -306.402344 L 221.601562 -304 Z M 376 -305.601562 L 376 -303.199219 L 374.402344 -303.199219 C 374.402344 -304.800781 374.933594 -305.601562 376 -305.601562 Z M 561.601562 -300.800781 L 561.601562 -303.199219 C 563.203125 -302.667969 564 -301.867188 564 -300.800781 Z M 159.199219 -293.601562 L 157.601562 -293.601562 L 157.601562 -292.800781 L 159.199219 -292.800781 Z M 198.402344 -288 L 196.800781 -288 L 196.800781 -285.601562 L 198.402344 -285.601562 Z M 514.402344 -288 L 512 -288 L 512 -284.800781 C 513.601562 -284.800781 514.402344 -285.601562 514.402344 -287.199219 Z M 436 -285.601562 L 433.601562 -285.601562 L 433.601562 -284.800781 L 436 -284.800781 Z M 310.402344 -277.601562 L 310.402344 -280 L 312.800781 -280 L 312.800781 -277.601562 Z M 436 -272 L 432.800781 -274.402344 C 433.335938 -271.734375 433.46875 -268.933594 433.203125 -266 C 432.933594 -263.066406 432.535156 -260.265625 432 -257.601562 L 433.601562 -257.601562 L 435.203125 -259.199219 C 435.203125 -260.265625 434.933594 -260.800781 434.402344 -260.800781 C 434.933594 -263.46875 435.203125 -265.867188 435.203125 -268 C 435.203125 -270.132812 435.46875 -271.46875 436 -272 Z M 444 -272.800781 L 444 -275.199219 L 447.203125 -275.199219 L 447.203125 -272.800781 Z M 187.199219 -264.800781 L 188.800781 -264.800781 L 188.800781 -262.402344 C 189.867188 -261.335938 189.332031 -260.800781 187.199219 -260.800781 L 185.601562 -260.800781 L 185.601562 -261.601562 C 186.667969 -263.734375 187.199219 -264.800781 187.199219 -264.800781 Z M 164.800781 -254.402344 L 164.800781 -253.601562 L 166.402344 -253.601562 C 168.535156 -258.402344 169.601562 -261.335938 169.601562 -262.402344 C 168.535156 -262.402344 166.933594 -259.734375 164.800781 -254.402344 Z M 675.203125 -262.402344 L 672.003906 -262.402344 L 670.402344 -256 L 671.203125 -253.601562 C 670.667969 -252.535156 670.402344 -251.199219 670.402344 -249.601562 L 672.003906 -249.601562 L 670.402344 -248 L 670.402344 -240.800781 L 672.800781 -240.800781 L 672.800781 -248.800781 L 675.203125 -248.800781 L 675.203125 -254.402344 L 672.800781 -254.402344 L 672.003906 -257.601562 L 675.203125 -257.601562 Z M 306.402344 -257.601562 C 304.800781 -254.402344 301.867188 -252 297.601562 -250.402344 L 294.402344 -239.199219 L 296.800781 -239.199219 C 300.535156 -241.335938 305.601562 -246.933594 312 -256 L 313.601562 -256 C 313.601562 -257.066406 312.800781 -257.601562 311.199219 -257.601562 C 310.132812 -257.066406 308.800781 -256.800781 307.199219 -256.800781 C 307.199219 -257.335938 306.933594 -257.601562 306.402344 -257.601562 Z M 182.402344 -253.601562 L 182.402344 -256 L 184.800781 -256 L 184.800781 -253.601562 Z M 439.203125 -253.601562 L 436 -253.601562 C 436 -251.46875 435.46875 -250.402344 434.402344 -250.402344 C 435.46875 -249.335938 436 -248.535156 436 -248 L 436.800781 -248 C 438.402344 -248 439.203125 -248.535156 439.203125 -249.601562 Z M 166.402344 -250.402344 L 162.402344 -250.402344 L 162.402344 -248.800781 C 163.46875 -248.800781 164.535156 -248.535156 165.601562 -248 L 166.402344 -249.601562 Z M 160 -249.601562 L 158.402344 -249.601562 L 159.199219 -248 L 160 -248 Z M 340 -249.601562 L 342.402344 -246.402344 L 336.800781 -240.800781 C 336.800781 -241.335938 336.535156 -241.601562 336 -241.601562 C 337.601562 -246.933594 338.933594 -249.601562 340 -249.601562 Z M 482.402344 -248 L 483.203125 -245.601562 L 480 -245.601562 C 481.066406 -247.199219 481.867188 -248 482.402344 -248 Z M 177.601562 -240.800781 L 177.601562 -244.800781 L 179.199219 -244.800781 L 179.199219 -243.199219 C 180.265625 -241.601562 179.734375 -240.800781 177.601562 -240.800781 Z M 224 -243.199219 L 220.800781 -241.601562 L 222.402344 -239.199219 L 222.402344 -238.402344 L 220 -238.402344 L 220.800781 -236 C 225.066406 -237.601562 226.667969 -240 225.601562 -243.199219 Z M 212 -241.601562 L 212 -240.800781 C 212.535156 -235.46875 209.867188 -232.800781 204 -232.800781 L 205.601562 -230.402344 L 205.601562 -229.601562 L 203.199219 -229.601562 C 201.601562 -229.601562 200.800781 -230.132812 200.800781 -231.199219 C 200.800781 -233.335938 204.535156 -236.800781 212 -241.601562 Z M 302.402344 -224 L 302.402344 -223.199219 L 304 -223.199219 L 301.601562 -218.402344 L 304 -217.601562 C 306.132812 -221.335938 307.199219 -224 307.199219 -225.601562 L 305.601562 -225.601562 C 305.601562 -226.132812 309.335938 -230.132812 316.800781 -237.601562 C 317.867188 -238.667969 318.402344 -239.734375 318.402344 -240.800781 C 307.734375 -236 302.402344 -230.402344 302.402344 -224 Z M 175.199219 -237.601562 L 176 -237.601562 L 176 -233.601562 C 176 -232 175.46875 -231.199219 174.402344 -231.199219 L 172 -231.199219 L 172 -233.601562 C 172 -234.667969 173.066406 -236 175.199219 -237.601562 Z M 216 -236 C 213.867188 -235.46875 212.800781 -234.402344 212.800781 -232.800781 L 212.800781 -230.402344 L 214.402344 -230.402344 C 214.402344 -230.402344 214.933594 -231.46875 216 -233.601562 Z M 221.601562 -232.800781 L 224 -232.800781 L 224 -234.402344 C 222.402344 -234.402344 221.601562 -233.867188 221.601562 -232.800781 Z M 433.601562 -232.800781 L 433.601562 -228 L 435.203125 -224 L 435.203125 -220 C 435.203125 -218.402344 434.402344 -217.601562 432.800781 -217.601562 L 432.800781 -216.800781 L 438.402344 -215.199219 C 438.402344 -216.265625 438.667969 -216.800781 439.203125 -216.800781 C 438.667969 -217.335938 438.402344 -218.402344 438.402344 -220 C 438.933594 -221.066406 439.203125 -222.132812 439.203125 -223.199219 L 436.800781 -224 C 437.335938 -226.667969 437.601562 -228.933594 437.601562 -230.800781 C 437.601562 -232.667969 437.867188 -233.867188 438.402344 -234.402344 L 435.203125 -234.402344 C 433.066406 -234.402344 432.535156 -233.867188 433.601562 -232.800781 Z M 329.601562 -228 L 333.601562 -231.199219 L 336 -231.199219 L 336 -229.601562 C 336 -227.46875 334.933594 -226.132812 332.800781 -225.601562 L 332 -225.601562 C 330.402344 -225.601562 329.601562 -226.402344 329.601562 -228 Z M 621.601562 -229.601562 L 620.800781 -222.402344 L 622.402344 -215.199219 C 621.867188 -213.601562 621.46875 -212.132812 621.203125 -210.800781 C 620.933594 -209.46875 620.800781 -208.265625 620.800781 -207.199219 C 625.070312 -206.132812 627.203125 -204.265625 627.203125 -201.601562 L 629.601562 -201.601562 L 628.003906 -207.199219 C 629.070312 -207.199219 629.601562 -207.46875 629.601562 -208 C 626.933594 -208 625.601562 -208.800781 625.601562 -210.402344 L 625.601562 -212 L 628.003906 -215.199219 C 626.402344 -215.199219 625.601562 -216 625.601562 -217.601562 L 624.800781 -228 C 624.800781 -228 623.734375 -228.535156 621.601562 -229.601562 Z M 172 -228 C 172 -227.46875 172.265625 -227.199219 172.800781 -227.199219 C 171.199219 -222.402344 169.867188 -220 168.800781 -220 L 168.800781 -224 C 168.800781 -226.132812 169.867188 -227.46875 172 -228 Z M 444.800781 -223.199219 L 444 -223.199219 L 444 -220.800781 L 445.601562 -220.800781 Z M 548 -204.800781 C 546.933594 -205.867188 545.867188 -206.402344 544.800781 -206.402344 C 544.800781 -204.265625 543.734375 -202.933594 541.601562 -202.402344 L 537.601562 -204.800781 C 529.601562 -200.535156 524.800781 -197.601562 523.203125 -196 C 523.203125 -197.601562 522.402344 -198.402344 520.800781 -198.402344 L 518.402344 -198.402344 C 517.335938 -197.332031 516.800781 -196.535156 516.800781 -196 C 516.800781 -196 516.800781 -195.867188 516.800781 -195.601562 C 516.800781 -195.332031 516.800781 -194.933594 516.800781 -194.402344 L 515.203125 -192.800781 C 514.667969 -192.800781 514.402344 -193.332031 514.402344 -194.402344 L 512 -192.800781 L 508 -192.800781 L 499.203125 -186.402344 L 497.601562 -186.402344 L 496.800781 -191.199219 C 496.800781 -191.734375 497.066406 -192 497.601562 -192 L 496.800781 -194.402344 C 496.800781 -196 497.601562 -196.800781 499.203125 -196.800781 C 499.203125 -196.265625 499.46875 -196 500 -196 C 500 -197.601562 500.800781 -198.402344 502.402344 -198.402344 L 500.800781 -200 C 502.933594 -202.667969 504 -205.066406 504 -207.199219 L 501.601562 -207.199219 C 500.535156 -205.601562 496.800781 -204.265625 490.402344 -203.199219 L 490.402344 -204.800781 L 488 -203.199219 L 477.601562 -203.199219 C 476.535156 -203.199219 476 -204.535156 476 -207.199219 L 470.402344 -207.199219 C 470.402344 -207.199219 463.46875 -209.332031 449.601562 -213.601562 C 449.601562 -212.535156 449.335938 -212 448.800781 -212 C 450.402344 -208.800781 451.203125 -206.402344 451.203125 -204.800781 L 450.402344 -199.199219 C 452 -196 452.800781 -193.601562 452.800781 -192 C 451.203125 -192 450.402344 -191.46875 450.402344 -190.402344 L 450.402344 -183.199219 C 451.46875 -181.601562 452.535156 -180.800781 453.601562 -180.800781 L 451.203125 -166.402344 C 451.203125 -165.867188 451.734375 -165.601562 452.800781 -165.601562 L 451.203125 -160 L 451.203125 -159.199219 C 451.203125 -157.601562 453.066406 -155.734375 456.800781 -153.601562 L 464 -160.800781 L 466.402344 -160.800781 L 466.402344 -159.199219 C 464.269531 -159.199219 463.203125 -158.132812 463.203125 -156 C 464.269531 -156 464.800781 -155.734375 464.800781 -155.199219 C 463.203125 -155.199219 462.402344 -154.402344 462.402344 -152.800781 C 462.402344 -152.265625 468.800781 -149.867188 481.601562 -145.601562 C 490.667969 -146.132812 498.800781 -146.800781 506 -147.601562 C 513.203125 -148.402344 519.734375 -149.066406 525.601562 -149.601562 L 533.601562 -149.601562 L 537.601562 -147.199219 L 563.203125 -147.199219 C 564.800781 -147.199219 565.867188 -146.132812 566.402344 -144 C 572.800781 -144 576 -146.667969 576 -152 C 576 -166.933594 576.269531 -174.667969 576.800781 -175.199219 C 576.800781 -175.734375 576.535156 -176 576 -176 L 578.402344 -196.800781 L 577.601562 -199.199219 C 577.601562 -204 578.667969 -207.46875 580.800781 -209.601562 C 579.203125 -209.601562 578.402344 -210.402344 578.402344 -212 L 577.601562 -217.601562 L 576 -217.601562 L 575.203125 -218.402344 L 576.800781 -220.800781 L 575.203125 -220.800781 C 572.535156 -216.535156 563.46875 -211.199219 548 -204.800781 Z M 340.800781 -218.402344 L 340.800781 -220.800781 L 343.199219 -220.800781 C 343.199219 -219.199219 342.402344 -218.402344 340.800781 -218.402344 Z M 166.402344 -215.199219 L 166.402344 -217.601562 L 167.199219 -217.601562 L 168 -215.199219 Z M 320 -215.199219 L 320 -216.800781 L 322.402344 -216.800781 L 323.199219 -215.199219 Z M 189.601562 -215.199219 L 189.601562 -213.601562 L 187.199219 -213.601562 C 188.265625 -214.667969 189.066406 -215.199219 189.601562 -215.199219 Z M 672.003906 -213.601562 L 671.203125 -215.199219 L 672.800781 -215.199219 L 672.800781 -213.601562 Z M 180 -210.402344 L 180 -207.199219 L 182.402344 -207.199219 C 182.402344 -208.265625 182.933594 -209.867188 184 -212 L 183.199219 -212 C 181.066406 -210.933594 180 -210.402344 180 -210.402344 Z M 432 -212 L 430.402344 -212 C 430.402344 -208.800781 430.132812 -206.933594 429.601562 -206.402344 L 432 -206.402344 Z M 443.203125 -208 L 440.800781 -208 L 440.800781 -206.402344 C 443.46875 -206.402344 444.800781 -205.332031 444.800781 -203.199219 C 444.800781 -202.667969 444.269531 -202.402344 443.203125 -202.402344 C 443.203125 -201.867188 443.734375 -201.601562 444.800781 -201.601562 C 444.269531 -198.402344 443.601562 -194.800781 442.800781 -190.800781 C 442 -186.800781 440.535156 -182.667969 438.402344 -178.402344 C 439.46875 -178.402344 440 -177.867188 440 -176.800781 L 441.601562 -178.402344 L 445.601562 -176 L 446.402344 -178.402344 L 446.402344 -180 C 446.402344 -182.132812 446.132812 -183.46875 445.601562 -184 L 448 -198.402344 C 448 -199.46875 446.402344 -202.667969 443.203125 -208 Z M 325.601562 -203.199219 L 325.601562 -202.402344 L 323.199219 -199.199219 L 324 -199.199219 C 321.335938 -193.867188 320 -191.199219 320 -191.199219 L 316.800781 -191.199219 L 316.800781 -192.800781 C 320.535156 -199.734375 323.46875 -203.199219 325.601562 -203.199219 Z M 152 -200 L 149.601562 -201.601562 L 148 -198.402344 C 148.535156 -197.332031 148.800781 -196 148.800781 -194.402344 C 150.402344 -194.402344 151.46875 -196.265625 152 -200 Z M 304.800781 -198.402344 L 302.402344 -198.402344 L 302.402344 -192.800781 L 303.199219 -192.800781 Z M 671.203125 -198.402344 L 672.003906 -198.402344 L 672.003906 -196.800781 C 672.003906 -195.199219 671.46875 -194.402344 670.402344 -194.402344 L 668.800781 -194.402344 L 668.800781 -196 C 668.800781 -197.601562 669.601562 -198.402344 671.203125 -198.402344 Z M 280.800781 -190.402344 L 282.402344 -190.402344 C 282.933594 -190.402344 284 -191.199219 285.601562 -192.800781 L 284 -192.800781 C 282.933594 -192.800781 281.867188 -192 280.800781 -190.402344 Z M 300 -184.800781 L 300 -183.199219 L 298.402344 -176.800781 L 300.800781 -176.800781 C 302.933594 -180.535156 304 -183.199219 304 -184.800781 L 304 -191.199219 C 302.402344 -191.199219 301.066406 -189.066406 300 -184.800781 Z M 298.402344 -190.402344 L 296 -190.402344 L 296 -186.402344 L 296.800781 -186.402344 C 296.800781 -186.933594 296.933594 -187.46875 297.199219 -188 C 297.46875 -188.535156 297.867188 -189.332031 298.402344 -190.402344 Z M 490.402344 -184.800781 L 494.402344 -186.402344 L 496 -184 C 494.402344 -184 493.601562 -183.46875 493.601562 -182.402344 L 492.800781 -182.402344 C 491.203125 -182.402344 490.402344 -182.933594 490.402344 -184 Z M 662.402344 -175.199219 L 664.800781 -175.199219 L 665.601562 -184.800781 C 664.535156 -184.800781 663.46875 -181.601562 662.402344 -175.199219 Z M 292.800781 -182.402344 L 292.800781 -180.800781 C 294.402344 -180.800781 295.199219 -181.601562 295.199219 -183.199219 L 295.199219 -184 C 293.601562 -183.46875 292.800781 -182.933594 292.800781 -182.402344 Z M 484 -180 L 485.601562 -180 C 486.667969 -180 487.203125 -179.46875 487.203125 -178.402344 L 488.800781 -180 L 491.203125 -180 L 500 -178.402344 L 500 -175.199219 L 494.402344 -175.199219 L 491.203125 -176 C 491.203125 -175.46875 490.933594 -175.199219 490.402344 -175.199219 L 488.800781 -176.800781 C 484.535156 -175.734375 482.402344 -173.867188 482.402344 -171.199219 L 488 -168.800781 L 488 -168 C 488 -166.402344 487.46875 -165.601562 486.402344 -165.601562 L 484 -165.601562 L 484 -166.402344 L 484.800781 -168.800781 L 480.800781 -168.800781 L 472 -163.199219 L 472 -160 L 466.402344 -160.800781 C 466.933594 -164.535156 472 -169.332031 481.601562 -175.199219 C 481.601562 -178.402344 482.402344 -180 484 -180 Z M 306.402344 -176 L 308.800781 -176 L 308.800781 -175.199219 C 309.867188 -170.402344 308.269531 -167.199219 304 -165.601562 L 300.800781 -165.601562 L 300.800781 -168 C 304.535156 -170.132812 306.402344 -172.800781 306.402344 -176 Z M 624 -165.601562 L 620.800781 -165.601562 L 621.601562 -163.199219 L 624 -163.199219 Z M 672.003906 -163.199219 L 672.003906 -162.402344 C 672.003906 -160.800781 671.203125 -160 669.601562 -160 L 669.601562 -160.800781 C 670.667969 -162.402344 671.46875 -163.199219 672.003906 -163.199219 Z M 381.601562 -155.199219 L 380 -155.199219 L 380 -152 L 381.601562 -152 Z M 288 -145.601562 L 288.800781 -145.601562 C 288.265625 -145.066406 288 -144 288 -142.402344 L 285.601562 -142.402344 L 285.601562 -144 C 286.667969 -145.066406 287.46875 -145.601562 288 -145.601562 Z M 621.601562 -142.402344 L 620.800781 -142.402344 L 621.601562 -138.402344 L 622.402344 -138.402344 Z M 280.800781 -100 L 278.402344 -98.398438 C 279.46875 -97.332031 280 -96 280 -94.398438 L 280.800781 -94.398438 Z M 667.203125 -92.800781 L 667.203125 -94.398438 L 670.402344 -94.398438 L 670.402344 -92.800781 Z M 656.003906 -91.199219 L 652.800781 -91.199219 L 652.800781 -89.601562 L 656.003906 -89.601562 Z M 282.402344 -82.398438 L 280.800781 -82.398438 L 280.800781 -80 L 282.402344 -80 Z M 283.199219 -79.199219 L 281.601562 -79.199219 L 281.601562 -64.800781 L 280.800781 -63.199219 C 284 -61.066406 285.867188 -58.667969 286.402344 -56 C 285.335938 -52.800781 284.800781 -50.933594 284.800781 -50.398438 C 285.335938 -49.332031 285.601562 -48.265625 285.601562 -47.199219 L 287.199219 -47.199219 C 286.667969 -48.800781 287.199219 -50.398438 288.800781 -52 C 288.800781 -53.601562 288.535156 -54.933594 288 -56 C 289.066406 -60.265625 289.066406 -63.734375 288 -66.398438 L 288 -71.199219 C 286.402344 -69.066406 285.335938 -68 284.800781 -68 L 282.402344 -73.601562 C 283.46875 -74.667969 283.734375 -76 283.199219 -77.601562 Z M 670.402344 -76.800781 L 670.402344 -79.199219 L 671.203125 -79.199219 L 671.203125 -76.800781 Z M 531.203125 -69.601562 L 531.203125 -72 C 532.800781 -71.46875 533.601562 -70.667969 533.601562 -69.601562 Z M 526.402344 -71.199219 L 528.800781 -71.199219 L 528.800781 -68 C 527.203125 -68 526.402344 -69.066406 526.402344 -71.199219 Z M 564.800781 -69.601562 L 564.800781 -71.199219 L 566.402344 -71.199219 L 566.402344 -69.601562 Z M 286.402344 -67.199219 L 287.199219 -64.800781 C 287.199219 -63.734375 286.402344 -63.199219 284.800781 -63.199219 L 284 -64.800781 C 284 -66.398438 284.800781 -67.199219 286.402344 -67.199219 Z M 542.402344 -66.398438 L 541.601562 -66.398438 L 541.601562 -64 L 542.402344 -64 Z M 677.601562 -48 L 679.203125 -45.601562 L 679.203125 -41.601562 C 679.203125 -41.066406 677.601562 -39.464844 674.402344 -36.800781 C 674.402344 -37.867188 673.867188 -38.398438 672.800781 -38.398438 C 675.46875 -44.800781 677.070312 -48 677.601562 -48 Z M 674.402344 -35.199219 L 676.800781 -36 L 677.601562 -33.601562 L 676.003906 -32.800781 Z M 674.402344 -35.199219 "/></g></g><g style="fill:#d9d9d9;fill-opacity:1;"><g transform="translate(1044.396642, 850.124902)"><path style="stroke:none" d="M 419.203125 -703.203125 C 452.269531 -698.402344 475.734375 -690.933594 489.601562 -680.800781 C 497.066406 -675.46875 502.136719 -668.535156 504.800781 -660.003906 C 507.46875 -658.933594 508.800781 -655.734375 508.800781 -650.402344 C 502.402344 -641.867188 499.203125 -636.003906 499.203125 -632.800781 C 500.800781 -632.800781 501.601562 -632.003906 501.601562 -630.402344 L 501.601562 -625.601562 C 501.601562 -623.46875 493.335938 -620.535156 476.800781 -616.800781 C 476.800781 -615.734375 472.800781 -614.667969 464.800781 -613.601562 L 464.800781 -615.203125 C 462.136719 -613.070312 459.734375 -612 457.601562 -612 C 454.933594 -613.070312 451.066406 -614.667969 446 -616.800781 C 440.933594 -618.933594 434.933594 -621.601562 428 -624.800781 L 427.203125 -624.800781 L 420 -623.203125 L 417.601562 -624.800781 C 415.46875 -621.070312 413.066406 -619.203125 410.402344 -619.203125 L 400 -611.203125 L 394.402344 -611.203125 C 394.402344 -608 390.667969 -603.46875 383.203125 -597.601562 C 383.203125 -594.933594 381.867188 -593.601562 379.203125 -593.601562 L 380 -591.203125 C 376.800781 -591.203125 372.800781 -587.734375 368 -580.800781 C 368 -581.335938 367.46875 -581.601562 366.402344 -581.601562 C 368.535156 -591.203125 372.269531 -597.601562 377.601562 -600.800781 L 380 -600 C 380 -601.601562 381.601562 -602.402344 384.800781 -602.402344 L 383.203125 -606.402344 L 383.203125 -608.800781 C 387.46875 -613.601562 391.46875 -618.800781 395.203125 -624.402344 C 398.933594 -630.003906 402.667969 -636.269531 406.402344 -643.203125 L 406.402344 -647.203125 C 402.667969 -647.203125 389.867188 -659.734375 368 -684.800781 L 368 -685.601562 C 369.066406 -687.734375 376.269531 -690.667969 389.601562 -694.402344 C 389.601562 -698.136719 399.46875 -701.070312 419.203125 -703.203125 Z M 63.199219 -608.800781 C 79.199219 -608.800781 91.46875 -607.203125 100 -604 C 101.066406 -604.535156 102.398438 -604.800781 104 -604.800781 C 107.199219 -602.136719 118.398438 -597.070312 137.601562 -589.601562 C 137.601562 -588.535156 141.601562 -586.402344 149.601562 -583.203125 C 154.933594 -580 160.402344 -576.667969 166 -573.203125 C 171.601562 -569.734375 177.066406 -565.867188 182.402344 -561.601562 C 190.402344 -548.800781 194.933594 -539.46875 196 -533.601562 C 192.800781 -519.203125 189.066406 -512 184.800781 -512 C 173.066406 -503.46875 162.132812 -499.203125 152 -499.203125 L 149.601562 -499.203125 C 149.066406 -499.203125 148.800781 -499.46875 148.800781 -500 L 146.402344 -499.203125 C 139.46875 -499.734375 136 -500.535156 136 -501.601562 L 133.601562 -500 L 131.199219 -501.601562 C 117.867188 -486.136719 111.734375 -470.667969 112.800781 -455.203125 L 112.800781 -446.402344 C 112.800781 -444.269531 112.535156 -442.667969 112 -441.601562 C 113.601562 -435.734375 127.46875 -426.402344 153.601562 -413.601562 C 182.933594 -396 197.601562 -383.203125 197.601562 -375.199219 L 198.402344 -372 C 198.402344 -367.734375 192.800781 -361.066406 181.601562 -352 C 182.667969 -342.933594 174.933594 -333.867188 158.402344 -324.800781 C 155.199219 -324.800781 151.734375 -321.335938 148 -314.402344 L 149.601562 -308 L 149.601562 -304.800781 C 147.46875 -295.199219 144 -290.402344 139.199219 -290.402344 L 136.800781 -284 L 134.402344 -284 L 136 -293.601562 L 133.601562 -293.601562 L 133.601562 -289.601562 C 132 -289.601562 131.199219 -290.402344 131.199219 -292 L 131.199219 -296 C 131.199219 -296.535156 131.46875 -296.800781 132 -296.800781 C 132 -297.335938 131.734375 -297.601562 131.199219 -297.601562 L 132 -306.402344 L 132 -312.800781 C 130.933594 -336.269531 126.933594 -348 120 -348 C 114.132812 -349.601562 101.601562 -361.335938 82.398438 -383.203125 C 78.132812 -390.132812 74.398438 -400.535156 71.199219 -414.402344 C 73.867188 -432 77.601562 -440.800781 82.398438 -440.800781 C 84 -443.46875 86.800781 -451.066406 90.800781 -463.601562 C 94.800781 -476.136719 100.265625 -493.335938 107.199219 -515.203125 L 66.398438 -547.203125 L 46.398438 -568.800781 L 37.601562 -595.203125 L 36.800781 -602.402344 C 37.867188 -604 38.667969 -604.800781 39.199219 -604.800781 L 40.800781 -604.800781 C 41.332031 -604.800781 41.601562 -604.535156 41.601562 -604 L 44 -604.800781 L 46.398438 -604 C 56 -607.203125 61.601562 -608.800781 63.199219 -608.800781 Z M 516 -606.402344 L 519.203125 -604 L 529.601562 -604 C 531.203125 -604 532.535156 -603.46875 533.601562 -602.402344 L 536.800781 -604 C 559.203125 -597.070312 570.667969 -589.601562 571.203125 -581.601562 C 573.335938 -581.601562 574.402344 -580.535156 574.402344 -578.402344 C 574.933594 -568.800781 570.402344 -560.800781 560.800781 -554.402344 C 553.867188 -550.667969 550.402344 -547.46875 550.402344 -544.800781 C 543.46875 -539.46875 537.867188 -536.269531 533.601562 -535.203125 C 521.867188 -528.800781 516 -522.667969 516 -516.800781 L 515.203125 -516.800781 L 512.800781 -517.601562 C 512.800781 -516 512 -515.203125 510.402344 -515.203125 L 504 -515.203125 C 505.066406 -512 503.46875 -510.402344 499.203125 -510.402344 C 499.203125 -507.203125 492.269531 -497.867188 478.402344 -482.402344 L 468 -468.800781 L 468 -469.601562 L 469.601562 -472 L 468 -472 L 460.800781 -464 L 456.800781 -464 L 456.800781 -466.402344 L 457.601562 -468.800781 L 454.402344 -468.800781 L 454.402344 -466.402344 L 456.800781 -462.402344 C 452.535156 -461.335938 450.402344 -460.269531 450.402344 -459.203125 L 450.402344 -456 L 452.800781 -456 C 450.667969 -446.402344 447.734375 -441.601562 444 -441.601562 L 444 -440.800781 C 489.867188 -431.203125 520.800781 -421.335938 536.800781 -411.203125 C 537.867188 -410.132812 539.46875 -409.601562 541.601562 -409.601562 C 541.601562 -411.203125 541.867188 -412.535156 542.402344 -413.601562 C 549.867188 -413.066406 556.402344 -412.402344 562 -411.601562 C 567.601562 -410.800781 572.269531 -409.335938 576 -407.203125 C 578.136719 -408.269531 579.203125 -408.800781 579.203125 -408.800781 C 584.535156 -405.066406 587.46875 -402.132812 588 -400 L 589.601562 -400 C 591.203125 -400 600 -397.066406 616 -391.203125 C 617.070312 -392.800781 617.601562 -393.601562 617.601562 -393.601562 L 620 -393.601562 C 621.070312 -393.066406 622.535156 -392.132812 624.402344 -390.800781 C 626.269531 -389.46875 628.535156 -388.269531 631.203125 -387.203125 L 633.601562 -388.800781 L 635.203125 -388.800781 C 640.003906 -386.132812 647.203125 -384.269531 656.800781 -383.203125 C 656.800781 -384.269531 657.335938 -384.800781 658.402344 -384.800781 C 660.535156 -384.800781 663.734375 -383.734375 668.003906 -381.601562 C 677.601562 -381.601562 691.203125 -378.667969 708.800781 -372.800781 C 709.335938 -370.667969 717.601562 -364.535156 733.601562 -354.402344 L 742.402344 -348 L 742.402344 -345.601562 C 732.269531 -337.066406 723.734375 -332.269531 716.800781 -331.199219 C 714.136719 -324.800781 706.136719 -320.535156 692.800781 -318.402344 C 690.136719 -318.402344 684.269531 -314.402344 675.203125 -306.402344 C 664.003906 -306.402344 656.269531 -301.601562 652.003906 -292 C 646.667969 -291.46875 642.667969 -290.132812 640.003906 -288 C 614.933594 -291.734375 601.867188 -297.066406 600.800781 -304 C 598.667969 -304 592.535156 -307.46875 582.402344 -314.402344 C 576.535156 -314.402344 568.800781 -318.402344 559.203125 -326.402344 C 558.136719 -326.402344 546.402344 -331.734375 524 -342.402344 C 521.867188 -342.402344 517.867188 -343.46875 512 -345.601562 L 512 -336 C 515.734375 -327.46875 520.800781 -320.535156 527.203125 -315.199219 L 527.203125 -312.800781 C 525.066406 -288.265625 521.066406 -272.800781 515.203125 -266.402344 C 514.667969 -264.265625 514.402344 -262.132812 514.402344 -260 C 514.402344 -257.867188 514.402344 -256.265625 514.402344 -255.199219 C 515.46875 -255.199219 516 -254.667969 516 -253.601562 L 511.203125 -245.601562 L 512.800781 -243.199219 L 512.800781 -232.800781 C 514.402344 -232.800781 515.203125 -232 515.203125 -230.402344 L 512 -228 L 513.601562 -225.601562 L 512.800781 -217.601562 L 512.800781 -216.800781 L 513.601562 -216.800781 C 513.601562 -219.46875 514.402344 -220.800781 516 -220.800781 L 516.800781 -220.800781 L 516.800781 -216.800781 C 514.136719 -213.066406 512.800781 -209.867188 512.800781 -207.199219 L 513.601562 -200 C 515.734375 -200 516.800781 -199.199219 516.800781 -197.601562 L 516.800781 -191.199219 L 515.203125 -191.199219 L 515.203125 -195.199219 C 513.601562 -194.667969 512.800781 -193.601562 512.800781 -192 L 512.800781 -191.199219 L 515.203125 -187.199219 L 515.203125 -186.402344 C 512.535156 -182.132812 511.203125 -179.734375 511.203125 -179.199219 C 512.800781 -176 514.933594 -174.402344 517.601562 -174.402344 L 517.601562 -172.800781 L 516 -168.800781 C 517.066406 -165.601562 517.601562 -164 517.601562 -164 L 511.203125 -136.800781 C 514.402344 -134.667969 516.535156 -132.265625 517.601562 -129.601562 C 517.601562 -128.535156 516 -124.265625 512.800781 -116.800781 C 511.734375 -115.734375 511.203125 -113.867188 511.203125 -111.199219 C 511.203125 -109.066406 512.269531 -106.667969 514.402344 -104 L 516.800781 -105.601562 L 516.800781 -102.398438 L 512.800781 -102.398438 L 512.800781 -100 L 515.203125 -100 L 515.203125 -96.800781 L 513.601562 -92.800781 C 514.667969 -92.800781 515.734375 -91.46875 516.800781 -88.800781 C 516.269531 -85.601562 515.203125 -84 513.601562 -84 C 514.667969 -82.398438 515.734375 -80 516.800781 -76.800781 L 516.800781 -74.398438 C 516.800781 -73.332031 516.535156 -72.800781 516 -72.800781 L 516.800781 -70.398438 L 514.402344 -67.199219 L 518.402344 -62.398438 L 518.402344 -58.398438 C 518.402344 -56.800781 517.867188 -56 516.800781 -56 L 517.601562 -49.601562 L 517.601562 -44 C 517.601562 -37.066406 516.269531 -33.601562 513.601562 -33.601562 L 514.402344 -30.398438 L 516 -32 L 518.402344 -32 L 515.203125 -26.398438 L 515.203125 -22.398438 C 518.402344 -22.398438 520 -21.332031 520 -19.199219 C 518.402344 -19.199219 517.601562 -18.398438 517.601562 -16.800781 L 517.601562 -15.199219 C 519.734375 -15.199219 520.800781 -13.601562 520.800781 -10.398438 C 520.269531 -9.867188 520.269531 -7.464844 520.800781 -3.199219 L 521.601562 -3.199219 L 521.601562 -1.601562 L 520.800781 0 C 522.402344 0.535156 523.203125 1.332031 523.203125 2.398438 L 521.601562 5.601562 C 524.269531 5.601562 525.601562 6.398438 525.601562 8 C 521.867188 10.132812 520 11.734375 520 12.800781 L 520 13.601562 C 520 15.734375 521.335938 16.800781 524 16.800781 L 524 18.398438 C 521.335938 18.398438 520.269531 20.265625 520.800781 24 C 521.867188 24 522.402344 24.800781 522.402344 26.398438 C 523.46875 27.464844 523.46875 28.800781 522.402344 30.398438 L 523.203125 36 C 522.667969 37.601562 522.402344 40.535156 522.402344 44.800781 C 524 44.800781 524.800781 46.132812 524.800781 48.800781 C 526.402344 62.132812 527.203125 70.667969 527.203125 74.398438 C 529.867188 74.398438 531.203125 77.601562 531.203125 84 L 532 86.398438 C 528.269531 86.398438 526.667969 87.46875 527.203125 89.601562 C 510.667969 88 492 78.398438 471.203125 60.800781 C 464.269531 55.46875 460.269531 38.933594 459.203125 11.199219 L 459.203125 8.800781 C 458.136719 -5.066406 458.667969 -12 460.800781 -12 L 459.203125 -17.601562 L 457.601562 -46.398438 C 457.601562 -48.535156 458.136719 -50.132812 459.203125 -51.199219 C 458.667969 -51.734375 458.136719 -52 457.601562 -52 C 457.601562 -64.265625 458.667969 -70.398438 460.800781 -70.398438 L 460 -76.800781 L 460 -80 C 460 -81.066406 460.535156 -81.601562 461.601562 -81.601562 L 460.800781 -84 L 460 -96.800781 C 460 -100.535156 460.800781 -102.398438 462.402344 -102.398438 L 460.800781 -105.601562 C 462.933594 -107.734375 464.269531 -116.265625 464.800781 -131.199219 C 463.734375 -133.332031 463.203125 -134.402344 463.203125 -134.402344 C 464.269531 -134.402344 464.800781 -134.933594 464.800781 -136 L 463.203125 -136 C 463.734375 -137.601562 464.136719 -139.199219 464.402344 -140.800781 C 464.667969 -142.402344 464.800781 -144 464.800781 -145.601562 L 464.800781 -149.601562 C 464.800781 -151.734375 464.535156 -152.800781 464 -152.800781 C 464.535156 -154.402344 464.800781 -164.800781 464.800781 -184 L 463.203125 -191.199219 L 464 -191.199219 C 462.933594 -193.332031 462.402344 -194.667969 462.402344 -195.199219 C 461.867188 -206.402344 462 -218.402344 462.800781 -231.199219 C 463.601562 -244 464.800781 -257.601562 466.402344 -272 L 466.402344 -278.402344 C 465.867188 -283.734375 465.46875 -288.265625 465.203125 -292 C 464.933594 -295.734375 464.269531 -298.667969 463.203125 -300.800781 L 464 -302.402344 C 462.933594 -304.535156 462.402344 -305.867188 462.402344 -306.402344 L 464 -306.402344 C 462.402344 -316 460.933594 -324.269531 459.601562 -331.199219 C 458.269531 -338.132812 457.066406 -343.734375 456 -348 L 456.800781 -350.402344 L 454.402344 -358.402344 L 454.402344 -363.199219 C 456.535156 -363.199219 459.203125 -365.601562 462.402344 -370.402344 L 470.402344 -370.402344 L 470.402344 -372.800781 C 444.269531 -389.867188 429.601562 -398.402344 426.402344 -398.402344 L 423.203125 -398.402344 L 423.203125 -402.402344 C 418.402344 -405.601562 414.933594 -407.203125 412.800781 -407.203125 C 411.203125 -407.203125 409.867188 -405.867188 408.800781 -403.203125 L 409.601562 -403.203125 L 413.601562 -405.601562 L 414.402344 -403.203125 C 409.066406 -393.601562 403.734375 -388.800781 398.402344 -388.800781 L 399.203125 -386.402344 C 396.535156 -383.734375 395.203125 -381.335938 395.203125 -379.203125 L 392.800781 -379.203125 L 392.800781 -380 C 393.335938 -381.066406 393.601562 -381.867188 393.601562 -382.402344 C 393.601562 -382.933594 393.601562 -383.203125 393.601562 -383.203125 L 392.800781 -383.203125 L 388.800781 -381.601562 L 386.402344 -383.203125 L 380.800781 -379.203125 C 380.269531 -379.734375 378.933594 -380 376.800781 -380 L 376.800781 -379.203125 L 377.601562 -376 L 375.199219 -375.199219 L 373.601562 -375.199219 L 370.402344 -376 C 370.402344 -374.402344 369.335938 -373.601562 367.199219 -373.601562 L 369.601562 -370.402344 L 370.402344 -369.601562 L 368.800781 -369.601562 C 367.199219 -369.601562 366.402344 -370.667969 366.402344 -372.800781 C 363.199219 -369.601562 360.535156 -368 358.402344 -368 L 360 -370.402344 L 360 -372 L 356.800781 -372 L 356.800781 -373.601562 C 360 -373.601562 361.066406 -374.402344 360 -376 L 356 -377.601562 C 353.867188 -371.199219 351.199219 -368 348 -368 L 349.601562 -365.601562 C 349.601562 -364 346.132812 -362.933594 339.199219 -362.402344 L 339.199219 -364.800781 L 344.800781 -366.402344 C 343.734375 -368.535156 343.199219 -369.867188 343.199219 -370.402344 L 340.800781 -369.601562 L 340 -369.601562 C 339.46875 -369.601562 339.199219 -369.867188 339.199219 -370.402344 C 338.132812 -369.867188 336.800781 -369.601562 335.199219 -369.601562 L 336 -366.402344 L 336 -365.601562 C 332.269531 -365.601562 329.066406 -364 326.402344 -360.800781 L 325.601562 -360.800781 L 325.601562 -363.199219 C 333.066406 -368.535156 338.667969 -375.199219 342.402344 -383.203125 L 344 -383.203125 L 344 -390.402344 C 346.667969 -390.402344 356.800781 -402.667969 374.402344 -427.203125 L 374.402344 -429.601562 C 363.734375 -431.734375 350.132812 -442.402344 333.601562 -461.601562 C 333.601562 -462.667969 331.734375 -465.335938 328 -469.601562 L 328.800781 -472 C 332.535156 -470.402344 334.402344 -469.335938 334.402344 -468.800781 C 338.132812 -469.867188 339.46875 -470.933594 338.402344 -472 C 374.132812 -459.734375 393.601562 -453.601562 396.800781 -453.601562 C 398.933594 -462.136719 402.933594 -466.402344 408.800781 -466.402344 L 407.203125 -468.800781 C 413.601562 -473.601562 416.800781 -476.800781 416.800781 -478.402344 C 414.667969 -478.402344 413.601562 -479.46875 413.601562 -481.601562 C 415.203125 -481.601562 422.667969 -490.402344 436 -508 C 437.601562 -508 441.066406 -512 446.402344 -520 L 445.601562 -520 C 440.269531 -516.269531 433.734375 -512.136719 426 -507.601562 C 418.269531 -503.066406 409.066406 -498.667969 398.402344 -494.402344 C 394.132812 -494.402344 390.132812 -492.535156 386.402344 -488.800781 C 385.867188 -488.800781 385.601562 -489.066406 385.601562 -489.601562 L 351.199219 -480 L 351.199219 -481.601562 C 349.066406 -480.535156 346.269531 -479.203125 342.800781 -477.601562 C 339.335938 -476 335.46875 -474.667969 331.199219 -473.601562 C 314.132812 -478.933594 305.066406 -488.535156 304 -502.402344 C 304 -505.601562 303.867188 -508.402344 303.601562 -510.800781 C 303.335938 -513.203125 302.933594 -515.46875 302.402344 -517.601562 C 307.734375 -530.933594 316 -537.601562 327.199219 -537.601562 L 335.199219 -544.800781 C 336.269531 -543.734375 336.800781 -543.203125 336.800781 -543.203125 C 337.335938 -545.335938 338.132812 -546.402344 339.199219 -546.402344 L 338.402344 -548.800781 L 337.601562 -550.402344 C 339.734375 -550.402344 341.867188 -550.933594 344 -552 L 344 -549.601562 L 337.601562 -536 L 337.601562 -530.402344 C 337.601562 -528.800781 338.933594 -528 341.601562 -528 C 357.066406 -528 385.066406 -539.203125 425.601562 -561.601562 C 430.933594 -565.335938 437.734375 -569.335938 446 -573.601562 C 454.269531 -577.867188 464 -582.136719 475.203125 -586.402344 C 476.800781 -591.734375 490.402344 -598.402344 516 -606.402344 Z M 365.601562 -579.203125 L 365.601562 -576.800781 C 364.535156 -576.800781 362.132812 -574.136719 358.402344 -568.800781 L 356.800781 -568.800781 L 356.800781 -570.402344 C 358.402344 -576.269531 361.335938 -579.203125 365.601562 -579.203125 Z M 458.402344 -540.800781 L 460.800781 -540 L 461.601562 -540 C 461.601562 -541.066406 462.402344 -542.667969 464 -544.800781 L 464 -547.203125 C 462.933594 -547.203125 461.066406 -545.066406 458.402344 -540.800781 Z M 448.800781 -526.402344 L 448.800781 -524.800781 L 451.203125 -524.800781 L 455.203125 -531.203125 L 455.203125 -532.800781 C 450.933594 -528.535156 448.800781 -526.402344 448.800781 -526.402344 Z M 520 -520.800781 L 520 -524 L 521.601562 -524 L 521.601562 -520.800781 Z M 500.800781 -505.601562 L 509.601562 -506.402344 L 509.601562 -504 C 508 -504 505.867188 -503.203125 503.203125 -501.601562 C 502.136719 -501.601562 501.601562 -502.402344 501.601562 -504 Z M 469.601562 -494.402344 C 470.136719 -493.335938 470.402344 -492 470.402344 -490.402344 C 474.667969 -494.667969 477.066406 -496.800781 477.601562 -496.800781 C 477.601562 -498.402344 476.269531 -499.203125 473.601562 -499.203125 C 470.933594 -498.136719 469.601562 -496.535156 469.601562 -494.402344 Z M 498.402344 -496.800781 L 498.402344 -500 L 500 -500 L 500 -499.203125 C 500 -497.601562 499.46875 -496.800781 498.402344 -496.800781 Z M 492.800781 -492 L 495.203125 -492.800781 L 497.601562 -492.800781 L 497.601562 -492 C 497.601562 -490.402344 496.800781 -489.601562 495.203125 -489.601562 C 493.601562 -489.601562 492.800781 -490.402344 492.800781 -492 Z M 443.203125 -464 L 445.601562 -460 C 444 -460 443.203125 -459.203125 443.203125 -457.601562 L 444 -456 L 444.800781 -456 C 449.066406 -461.335938 450.933594 -465.066406 450.402344 -467.203125 L 448.800781 -467.203125 C 446.667969 -465.066406 444.800781 -464 443.203125 -464 Z M 268.800781 -467.203125 L 269.601562 -467.203125 L 270.402344 -462.402344 C 270.402344 -461.867188 269.867188 -461.601562 268.800781 -461.601562 L 272.800781 -453.601562 C 271.734375 -453.601562 270.667969 -451.203125 269.601562 -446.402344 C 271.199219 -446.402344 272 -445.601562 272 -444 C 269.335938 -434.402344 261.601562 -419.203125 248.800781 -398.402344 C 247.199219 -394.667969 244.265625 -392.800781 240 -392.800781 L 240 -388.800781 L 242.402344 -384.800781 C 238.667969 -381.601562 236 -380 234.402344 -380 C 235.46875 -378.402344 236.535156 -376 237.601562 -372.800781 C 231.199219 -363.199219 226.667969 -358.402344 224 -358.402344 L 224 -355.199219 L 226.402344 -355.199219 L 226.402344 -352 L 224 -352.800781 L 223.199219 -352.800781 C 223.199219 -350.667969 220.800781 -347.46875 216 -343.199219 C 216 -338.402344 215.199219 -336 213.601562 -336 L 215.199219 -333.601562 C 208.265625 -322.933594 204.800781 -316 204.800781 -312.800781 L 207.199219 -308.800781 L 206.402344 -308.800781 L 204 -310.402344 L 203.199219 -304 L 211.199219 -302.402344 C 222.402344 -302.402344 244 -310.402344 276 -326.402344 C 299.46875 -337.601562 312.269531 -343.199219 314.402344 -343.199219 C 314.402344 -343.199219 314.933594 -342.132812 316 -340 L 316 -336 L 316.800781 -336 C 317.867188 -334.402344 317.335938 -333.601562 315.199219 -333.601562 L 311.199219 -333.601562 L 311.199219 -336 L 307.199219 -336 L 307.199219 -333.601562 L 309.601562 -333.601562 L 309.601562 -332.800781 C 309.601562 -329.601562 304.269531 -326.667969 293.601562 -324 C 290.402344 -322.402344 288.800781 -321.066406 288.800781 -320 L 291.199219 -320 L 297.601562 -321.601562 L 297.601562 -318.402344 L 296 -316.800781 L 298.402344 -316.800781 L 298.402344 -314.402344 C 293.601562 -314.402344 290.667969 -312.269531 289.601562 -308 L 289.601562 -306.402344 L 295.199219 -311.199219 L 296.800781 -311.199219 L 296.800781 -308.800781 C 295.199219 -308.800781 293.601562 -307.199219 292 -304 L 286.402344 -302.402344 C 286.402344 -304 285.601562 -304.800781 284 -304.800781 C 284 -303.734375 282.402344 -302.402344 279.199219 -300.800781 C 278.132812 -300.800781 277.066406 -302.132812 276 -304.800781 L 273.601562 -304 L 271.199219 -304 C 271.199219 -305.601562 270.667969 -306.402344 269.601562 -306.402344 C 268.535156 -305.335938 267.46875 -304.800781 266.402344 -304.800781 L 266.402344 -304 L 270.402344 -304 L 270.402344 -301.601562 C 268.800781 -301.601562 265.867188 -300 261.601562 -296.800781 L 260 -296.800781 L 260 -297.601562 L 261.601562 -300.800781 L 256.800781 -300.800781 C 240.265625 -284.265625 221.867188 -276 201.601562 -276 L 190.402344 -276.800781 L 188.800781 -260.800781 C 189.867188 -259.734375 190.402344 -258.132812 190.402344 -256 L 188 -255.199219 L 188.800781 -252.800781 C 189.867188 -246.933594 187.46875 -244 181.601562 -244 C 182.667969 -238.132812 180.800781 -234.402344 176 -232.800781 C 178.132812 -229.066406 179.199219 -226.402344 179.199219 -224.800781 C 178.132812 -224.800781 177.601562 -224.265625 177.601562 -223.199219 L 179.199219 -223.199219 L 182.402344 -225.601562 L 182.402344 -224.800781 C 182.933594 -219.46875 181.601562 -216.800781 178.402344 -216.800781 L 180 -214.402344 L 175.199219 -203.199219 L 176 -181.601562 C 176 -180.535156 176.535156 -178.933594 177.601562 -176.800781 L 176.800781 -174.402344 L 177.601562 -171.199219 L 173.601562 -152.800781 C 174.667969 -150.667969 175.199219 -149.601562 175.199219 -149.601562 L 171.199219 -127.199219 C 172.800781 -127.199219 174.667969 -125.601562 176.800781 -122.398438 C 176.800781 -118.667969 176.667969 -113.601562 176.402344 -107.199219 C 176.132812 -100.800781 175.734375 -93.066406 175.199219 -84 L 176.800781 -81.601562 C 174.132812 -68.800781 168 -58.667969 158.402344 -51.199219 C 149.332031 -40.535156 141.601562 -35.199219 135.199219 -35.199219 C 119.199219 -35.199219 102.933594 -45.066406 86.398438 -64.800781 C 79.46875 -84 74.933594 -95.199219 72.800781 -98.398438 C 72.265625 -108.535156 74.933594 -115.734375 80.800781 -120 C 100.535156 -128.535156 110.132812 -137.601562 109.601562 -147.199219 C 112.265625 -147.199219 115.199219 -158.132812 118.398438 -180 L 120.800781 -181.601562 L 121.601562 -181.601562 L 122.398438 -176.800781 L 120.800781 -174.402344 L 122.398438 -174.402344 L 125.601562 -176.800781 L 127.199219 -176.800781 C 128.800781 -176.265625 129.601562 -175.46875 129.601562 -174.402344 L 128 -171.199219 L 129.601562 -171.199219 C 131.734375 -171.199219 136.265625 -180.265625 143.199219 -198.402344 C 148 -198.402344 150.667969 -205.867188 151.199219 -220.800781 C 152.265625 -221.335938 153.601562 -221.601562 155.199219 -221.601562 L 153.601562 -224.800781 C 154.132812 -226.933594 154.933594 -228 156 -228 L 159.199219 -228 C 159.199219 -231.734375 160.265625 -234.933594 162.402344 -237.601562 C 161.332031 -239.734375 160.800781 -241.066406 160.800781 -241.601562 C 162.402344 -241.601562 164 -243.199219 165.601562 -246.402344 L 165.601562 -248 L 163.199219 -251.199219 L 162.402344 -252.800781 C 165.601562 -252.800781 168.265625 -254.667969 170.402344 -258.402344 L 171.199219 -258.402344 L 170.402344 -260.800781 C 173.601562 -264.535156 176.535156 -270.402344 179.199219 -278.402344 L 176.800781 -279.199219 C 176.800781 -278.667969 176.265625 -278.402344 175.199219 -278.402344 L 175.199219 -279.199219 L 177.601562 -283.199219 L 177.601562 -284 L 164 -304 C 164 -308.269531 170.132812 -310.402344 182.402344 -310.402344 L 184 -308.800781 C 186.132812 -309.867188 187.46875 -310.402344 188 -310.402344 L 191.199219 -310.402344 C 192.800781 -315.734375 194.402344 -318.402344 196 -318.402344 L 198.402344 -317.601562 L 200 -324 L 197.601562 -324.800781 C 198.667969 -327.46875 199.46875 -328.800781 200 -328.800781 L 199.199219 -331.199219 L 199.199219 -332.800781 C 202.402344 -336 204.265625 -339.46875 204.800781 -343.199219 L 205.601562 -343.199219 L 205.601562 -344.800781 L 204.800781 -347.199219 L 207.199219 -348 C 207.199219 -347.46875 207.734375 -347.199219 208.800781 -347.199219 C 208.800781 -347.734375 209.066406 -348 209.601562 -348 C 208.535156 -350.132812 208 -351.46875 208 -352 C 209.066406 -355.734375 211.066406 -360.269531 214 -365.601562 C 216.933594 -370.933594 220.535156 -377.335938 224.800781 -384.800781 C 224.800781 -388 227.46875 -392.535156 232.800781 -398.402344 C 232.800781 -400 234.933594 -403.734375 239.199219 -409.601562 C 240.800781 -412.269531 241.335938 -413.867188 240.800781 -414.402344 C 240.265625 -415.46875 240 -416.800781 240 -418.402344 L 242.402344 -416.800781 L 243.199219 -416.800781 C 248 -424.800781 250.402344 -430.402344 250.402344 -433.601562 C 249.867188 -433.601562 249.601562 -433.601562 249.601562 -433.601562 C 251.734375 -433.601562 255.46875 -437.867188 260.800781 -446.402344 L 263.199219 -446.402344 C 262.132812 -448.535156 261.601562 -449.601562 261.601562 -449.601562 C 265.335938 -461.335938 267.734375 -467.203125 268.800781 -467.203125 Z M 276.800781 -467.203125 L 276.800781 -466.402344 C 277.867188 -464.800781 277.066406 -464 274.402344 -464 L 274.402344 -464.800781 C 275.46875 -466.402344 276.265625 -467.203125 276.800781 -467.203125 Z M 474.402344 -459.203125 L 474.402344 -460 L 476.800781 -460 L 476.800781 -459.203125 Z M 256.800781 -451.203125 L 260 -453.601562 L 260.800781 -451.203125 C 260.800781 -449.601562 260 -448.800781 258.402344 -448.800781 Z M 248.800781 -431.203125 L 248.800781 -433.601562 L 249.601562 -433.601562 L 249.601562 -431.203125 Z M 402.402344 -411.203125 L 401.601562 -411.203125 L 401.601562 -409.601562 L 406.402344 -408.800781 L 408.800781 -408.800781 L 408.800781 -409.601562 Z M 234.402344 -409.601562 L 234.402344 -411.203125 L 236.800781 -411.203125 L 236.800781 -407.203125 C 235.199219 -407.203125 234.402344 -408 234.402344 -409.601562 Z M 404 -405.601562 L 401.601562 -405.601562 C 401.601562 -404.535156 399.46875 -401.335938 395.203125 -396 L 397.601562 -395.203125 C 402.933594 -395.203125 406.667969 -397.066406 408.800781 -400.800781 L 408.800781 -402.402344 L 408 -402.402344 C 406.402344 -402.402344 405.601562 -401.066406 405.601562 -398.402344 L 402.402344 -398.402344 L 402.402344 -400 C 403.46875 -403.203125 404 -405.066406 404 -405.601562 Z M 416.800781 -398.402344 L 418.402344 -398.402344 C 419.46875 -398.402344 420.269531 -397.601562 420.800781 -396 C 420.800781 -394.402344 420 -393.601562 418.402344 -393.601562 C 418.402344 -395.734375 417.867188 -397.335938 416.800781 -398.402344 Z M 416.800781 -391.203125 L 418.402344 -390.402344 C 419.46875 -390.933594 420.800781 -391.203125 422.402344 -391.203125 L 423.203125 -388.800781 L 412 -383.203125 C 410.402344 -383.203125 409.335938 -384.269531 408.800781 -386.402344 L 408 -387.203125 C 408 -388.800781 410.933594 -390.132812 416.800781 -391.203125 Z M 364.800781 -379.203125 L 361.601562 -379.203125 L 361.601562 -376 C 363.734375 -377.066406 364.800781 -377.601562 364.800781 -377.601562 Z M 401.601562 -377.601562 L 401.601562 -380 C 403.203125 -380 404 -379.203125 404 -377.601562 Z M 407.203125 -376 L 407.203125 -379.203125 L 410.402344 -379.203125 L 410.402344 -376 Z M 357.601562 -363.199219 L 357.601562 -362.402344 C 357.601562 -360.269531 356.800781 -359.199219 355.199219 -359.199219 L 353.601562 -359.199219 C 353.601562 -360.269531 354.933594 -361.601562 357.601562 -363.199219 Z M 333.601562 -362.402344 L 336 -362.402344 C 336 -359.734375 336.269531 -357.867188 336.800781 -356.800781 C 333.066406 -356.269531 331.199219 -354.933594 331.199219 -352.800781 L 333.601562 -352.800781 L 333.601562 -352 C 330.402344 -346.132812 328 -343.199219 326.402344 -343.199219 C 326.402344 -344.800781 325.601562 -345.601562 324 -345.601562 L 319.199219 -342.402344 L 316 -342.402344 L 319.199219 -348 L 317.601562 -348 C 317.066406 -347.46875 316 -347.199219 314.402344 -347.199219 L 314.402344 -348 C 314.402344 -349.066406 315.46875 -350.402344 317.601562 -352 L 320 -352 L 320 -349.601562 C 323.199219 -349.601562 327.46875 -352.800781 332.800781 -359.199219 C 333.335938 -359.199219 333.601562 -360.269531 333.601562 -362.402344 Z M 344.800781 -359.199219 L 347.199219 -359.199219 C 347.199219 -358.132812 346.132812 -356.800781 344 -355.199219 L 343.199219 -355.199219 L 343.199219 -356.800781 C 343.199219 -358.402344 343.734375 -359.199219 344.800781 -359.199219 Z M 320 -352.800781 L 320 -355.199219 L 324 -355.199219 L 324.800781 -352.800781 Z M 343.199219 -350.402344 L 343.199219 -352.800781 L 344 -352.800781 C 345.601562 -352.800781 346.402344 -352 346.402344 -350.402344 Z M 340 -350.402344 L 340 -348 L 336.800781 -348 C 337.867188 -349.601562 338.933594 -350.402344 340 -350.402344 Z M 324 -336 L 324 -338.402344 L 326.402344 -338.402344 C 326.402344 -336.800781 325.601562 -336 324 -336 Z M 313.601562 -324 L 312 -326.402344 L 315.199219 -326.402344 C 315.199219 -324.800781 314.667969 -324 313.601562 -324 Z M 300.800781 -322.402344 L 300 -324.800781 L 300.800781 -324.800781 L 301.601562 -322.402344 Z M 279.199219 -316.800781 C 275.46875 -313.066406 273.601562 -309.601562 273.601562 -306.402344 L 276 -306.402344 L 280 -314.402344 L 280.800781 -314.402344 C 280.800781 -316 280.265625 -316.800781 279.199219 -316.800781 Z M 283.199219 -312.800781 C 284.265625 -311.199219 285.066406 -310.402344 285.601562 -310.402344 L 287.199219 -310.402344 L 287.199219 -314.402344 C 285.066406 -313.335938 283.734375 -312.800781 283.199219 -312.800781 Z M 297.601562 -308 C 318.933594 -308 331.46875 -303.199219 335.199219 -293.601562 C 345.335938 -288.800781 350.402344 -282.132812 350.402344 -273.601562 L 350.402344 -272 C 350.402344 -253.335938 348.800781 -244 345.601562 -244 L 346.402344 -241.601562 C 343.199219 -230.402344 338.667969 -224.800781 332.800781 -224.800781 C 332.800781 -220 331.734375 -216.265625 329.601562 -213.601562 C 330.132812 -212.535156 330.402344 -211.199219 330.402344 -209.601562 L 329.601562 -207.199219 C 330.667969 -205.066406 331.199219 -203.734375 331.199219 -203.199219 C 329.601562 -203.199219 328.800781 -202.402344 328.800781 -200.800781 L 331.199219 -200.800781 C 333.335938 -204 337.867188 -207.199219 344.800781 -210.402344 C 344.269531 -216.800781 348 -222.402344 356 -227.199219 C 356 -229.335938 356.800781 -230.402344 358.402344 -230.402344 L 362.402344 -230.402344 L 364.800781 -221.601562 C 363.734375 -218.933594 361.601562 -216.535156 358.402344 -214.402344 L 359.199219 -212 L 360 -209.601562 C 357.867188 -204.800781 354.402344 -202.402344 349.601562 -202.402344 L 352 -198.402344 C 352 -197.332031 350.132812 -195.734375 346.402344 -193.601562 C 346.402344 -193.601562 345.867188 -194.132812 344.800781 -195.199219 C 343.734375 -194.132812 342.667969 -193.601562 341.601562 -193.601562 L 341.601562 -191.199219 L 344 -191.199219 L 344 -189.601562 C 339.734375 -181.601562 334.402344 -175.199219 328 -170.402344 C 328.535156 -168.800781 328.800781 -167.46875 328.800781 -166.402344 C 326.132812 -165.867188 322.667969 -160 318.402344 -148.800781 C 314.132812 -148.800781 309.867188 -138.667969 305.601562 -118.398438 L 307.199219 -108 L 304 -108 L 300 -110.398438 L 294.402344 -110.398438 C 285.867188 -103.46875 280 -100 276.800781 -100 L 263.199219 -100 C 261.066406 -100 259.46875 -100.535156 258.402344 -101.601562 L 256 -100 C 251.734375 -101.066406 247.199219 -106.132812 242.402344 -115.199219 L 241.601562 -127.199219 L 248 -143.199219 C 248 -145.332031 251.734375 -150.132812 259.199219 -157.601562 C 258.667969 -163.46875 263.46875 -175.46875 273.601562 -193.601562 L 284.800781 -228.800781 L 283.199219 -232 C 285.867188 -238.402344 287.734375 -241.601562 288.800781 -241.601562 C 288.800781 -243.199219 288.265625 -244 287.199219 -244 C 287.734375 -248.265625 288 -251.867188 288 -254.800781 C 288 -257.734375 288 -260.265625 288 -262.402344 L 287.199219 -282.402344 C 287.199219 -283.46875 287.734375 -284 288.800781 -284 L 295.199219 -283.199219 L 302.402344 -284 C 301.867188 -285.066406 301.066406 -287.335938 300 -290.800781 C 298.933594 -294.269531 297.867188 -299.46875 296.800781 -306.402344 C 297.335938 -306.402344 297.601562 -306.933594 297.601562 -308 Z M 265.601562 -302.402344 L 260 -302.402344 L 260 -301.601562 L 265.601562 -301.601562 Z M 252 -293.601562 L 259.199219 -293.601562 L 259.199219 -292 L 258.402344 -289.601562 L 260.800781 -289.601562 L 264 -292 L 266.402344 -292 L 266.402344 -290.402344 C 257.335938 -282.933594 251.46875 -279.199219 248.800781 -279.199219 L 244.800781 -279.199219 C 243.734375 -279.199219 242.402344 -280.535156 240.800781 -283.199219 L 240.800781 -284 C 240.800781 -285.601562 242.667969 -287.46875 246.402344 -289.601562 L 251.199219 -288 L 252 -288 L 252 -289.601562 L 248.800781 -289.601562 C 248.800781 -290.667969 249.867188 -292 252 -293.601562 Z M 226.402344 -276 L 237.601562 -282.402344 L 244.800781 -276 L 244.800781 -274.402344 C 243.199219 -274.402344 239.46875 -272.265625 233.601562 -268 L 223.199219 -268 L 223.199219 -269.601562 C 223.199219 -271.199219 225.601562 -272 230.402344 -272 L 229.601562 -273.601562 C 227.46875 -273.601562 226.402344 -274.402344 226.402344 -276 Z M 233.601562 -276 L 233.601562 -273.601562 L 234.402344 -273.601562 C 236 -273.601562 237.066406 -274.667969 237.601562 -276.800781 L 236.800781 -276.800781 C 235.734375 -276.265625 234.667969 -276 233.601562 -276 Z M 232 -276 L 231.199219 -276 L 231.199219 -273.601562 L 232 -273.601562 Z M 218.402344 -266.402344 L 218.402344 -269.601562 L 220.800781 -269.601562 L 220.800781 -266.402344 Z M 225.601562 -266.402344 L 228.800781 -266.402344 L 228.800781 -264.800781 C 227.734375 -262.132812 225.601562 -260.800781 222.402344 -260.800781 L 220 -260.800781 C 220 -262.402344 221.867188 -264.265625 225.601562 -266.402344 Z M 212.800781 -262.402344 L 212.800781 -264.800781 L 216 -264.800781 C 216 -263.199219 214.933594 -262.402344 212.800781 -262.402344 Z M 184.800781 -240 L 188.800781 -240 L 188.800781 -237.601562 L 187.199219 -237.601562 C 186.667969 -237.601562 185.867188 -238.402344 184.800781 -240 Z M 316.800781 -193.601562 L 315.199219 -193.601562 L 315.199219 -191.199219 L 316.800781 -191.199219 Z M 311.199219 -184.800781 L 313.601562 -184.800781 L 313.601562 -187.199219 C 312 -187.199219 311.199219 -186.402344 311.199219 -184.800781 Z M 516.800781 -181.601562 L 516.800781 -179.199219 L 514.402344 -179.199219 C 514.402344 -180.800781 515.203125 -181.601562 516.800781 -181.601562 Z M 120.800781 -166.402344 L 120 -166.402344 L 120.800781 -164 L 121.601562 -164 Z M 510.402344 -136 L 508 -136.800781 L 508 -132 L 509.601562 -132 C 509.601562 -133.601562 509.867188 -134.933594 510.402344 -136 Z M 515.203125 -108 L 514.402344 -110.398438 L 516.800781 -110.398438 C 516.800781 -108.800781 516.269531 -108 515.203125 -108 Z M 515.203125 -108 "/></g></g></g></svg>